<svg width="256" height="256" xmlns="http://www.w3.org/2000/svg">
 <g stroke="#000" stroke-linejoin="bevel" stroke-width="1.0">
  <g fill="#a8868a">
   <path d="M0,0l256,0l0,256l-256,0l0,-256ZM136,32l-6,-3l-32,3l-12,3l-34,18l-9,12l-2,6l-15,17l-6,25l-3,42l1,13l7,22l19,26l14,10l34,13l15,0l13,4l34,-1l12,-3l25,-12l11,-11l5,-2l10,-14l11,-22l6,-22l2,-18l-2,-23l-4,-6l-3,-16l-4,-3l-6,-14l-17,-16l-12,-7l-12,-13l-28,-10l-12,2Z" stroke-width="4.0"/>
  </g>
  <g fill="#899fec">
   <path d="M101,76l2,-7l7,-6l12,-2l9,10l1,11l-10,14l-8,1l-13,-8l0,-13Z"/>
  </g>
  <g fill="#e0d1d4">
   <path d="M119,190l6,-8l10,-3l8,6l2,11l-3,6l-12,4l-10,-5l-1,-11Z"/>
  </g>
  <g fill="#add88a">
   <path d="M136,32l6,8l14,7l7,9l7,12l3,18l-9,22l-29,21l-8,10l-10,2l-20,13l-13,22l-2,18l6,24l8,11l8,4l3,6l-15,0l-34,-13l-14,-10l-19,-26l-7,-22l-1,-13l3,-42l6,-25l15,-17l2,-6l9,-12l34,-18l12,-3l32,-3l6,3ZM101,76l0,13l13,8l8,-1l10,-14l-1,-11l-9,-10l-12,2l-7,6l-2,7Z"/>
  </g>
  <g fill="#bfaeea">
   <path d="M107,239l-3,-6l-8,-4l-8,-11l-6,-24l2,-18l13,-22l20,-13l10,-2l8,-10l29,-21l9,-22l-3,-18l-7,-12l-7,-9l-14,-7l-6,-8l12,-2l28,10l12,13l12,7l17,16l6,14l4,3l3,16l4,6l2,23l-2,18l-6,22l-11,22l-10,14l-5,2l-11,11l-25,12l-12,3l-34,1l-13,-4ZM119,190l1,11l10,5l12,-4l3,-6l-2,-11l-8,-6l-10,3l-6,8Z"/>
  </g>
  <g fill="#ffffff">
  </g>
 </g>
</svg>
