<svg width="256" height="256" xmlns="http://www.w3.org/2000/svg">
 <rect width="100%" height="100%" fill="#eee" />
 <g stroke-linejoin="miter" stroke-width="4" fill="none">
  <path d="M0,0v256h256v-256h-256" stroke="#ffffff" />
  <path d="M136,32l-6,-3l-32,3l-12,3l-34,18l-9,12l-2,6l-15,17l-6,25l-3,42l1,13l7,22l19,26l14,10l34,13h15" stroke="#a8868a" />
  <path d="M107,239l13,4l34,-1l12,-3l25,-12l11,-11l5,-2l10,-14l11,-22l6,-22l2,-18l-2,-23l-4,-6l-3,-16l-4,-3l-6,-14l-17,-16l-12,-7l-12,-13l-28,-10l-12,2" stroke="#a8868a" />
  <path d="M107,239l-3,-6l-8,-4l-8,-11l-6,-24l2,-18l13,-22l20,-13l10,-2l8,-10l29,-21l9,-22l-3,-18l-7,-12l-7,-9l-14,-7l-6,-8" stroke="#bfaeea" />
  <path d="M119,190l1,11l10,5l12,-4l3,-6l-2,-11l-8,-6l-10,3l-6,8" stroke="#bfaeea" />
  <path d="M101,76v13l13,8l8,-1l10,-14l-1,-11l-9,-10l-12,2l-7,6l-2,7" stroke="#add88a" />
 </g>
 <g stroke-linejoin="miter" stroke-width="4" fill="none" stroke-dasharray="8, 8" >
  <path d="M0,0v256h256v-256h-256" stroke="#a8868a" />
  <path d="M136,32l-6,-3l-32,3l-12,3l-34,18l-9,12l-2,6l-15,17l-6,25l-3,42l1,13l7,22l19,26l14,10l34,13h15" stroke="#add88a" />
  <path d="M107,239l13,4l34,-1l12,-3l25,-12l11,-11l5,-2l10,-14l11,-22l6,-22l2,-18l-2,-23l-4,-6l-3,-16l-4,-3l-6,-14l-17,-16l-12,-7l-12,-13l-28,-10l-12,2" stroke="#bfaeea" />
  <path d="M107,239l-3,-6l-8,-4l-8,-11l-6,-24l2,-18l13,-22l20,-13l10,-2l8,-10l29,-21l9,-22l-3,-18l-7,-12l-7,-9l-14,-7l-6,-8" stroke="#add88a" />
  <path d="M119,190l1,11l10,5l12,-4l3,-6l-2,-11l-8,-6l-10,3l-6,8" stroke="#e0d1d4" />
  <path d="M101,76v13l13,8l8,-1l10,-14l-1,-11l-9,-10l-12,2l-7,6l-2,7" stroke="#899fec" />
 </g>
 <g stroke="none" fill="#000">
  <circle cx="0.0" cy="0.0" r="4" />
  <circle cx="136.0" cy="32.0" r="4" />
  <circle cx="107.0" cy="239.0" r="4" />
  <circle cx="119.0" cy="190.0" r="4" />
  <circle cx="101.0" cy="76.0" r="4" />
 </g>
</svg>
