<?xml version="1.0" standalone="no"?>
<!DOCTYPE svg PUBLIC "-//W3C//DTD SVG 20010904//EN"
 "http://www.w3.org/TR/2001/REC-SVG-20010904/DTD/svg10.dtd">
<svg version="1.0" xmlns="http://www.w3.org/2000/svg"
 width="256" height="256" viewBox="0 0 256.000000 256.000000"
 preserveAspectRatio="xMidYMid meet">
<metadata>
Created by potrace 1.15, written by Peter Selinger 2001-2017
</metadata>
<g transform="translate(0.000000,256.000000) scale(0.100000,-0.100000)"
fill="#777" stroke="#f00" stroke-width="20">
<path d="M1715 2208 c-50 -17 -197 -88 -247 -120 -25 -17 -78 -68 -117 -114
-39 -46 -76 -84 -81 -84 -5 0 -20 17 -34 38 -35 55 -175 185 -227 210 -25 12
-60 22 -77 22 -18 0 -49 9 -69 20 -42 23 -140 27 -208 9 -22 -6 -67 -16 -100
-24 -130 -30 -208 -91 -249 -195 -10 -25 -23 -54 -30 -65 -14 -22 -29 -99 -47
-252 -14 -115 -7 -270 16 -360 8 -32 19 -89 24 -126 5 -38 21 -90 34 -115 13
-26 27 -65 31 -86 6 -33 25 -57 108 -139 55 -54 129 -116 163 -138 35 -22 80
-60 100 -84 20 -25 42 -45 48 -45 7 0 32 -14 56 -30 24 -17 50 -30 58 -30 8 0
49 -23 91 -50 42 -28 82 -50 88 -50 15 0 80 -36 109 -60 30 -25 139 -70 168
-70 14 0 29 5 32 10 3 6 19 10 34 10 15 0 36 9 46 20 10 11 23 20 30 20 6 0
27 16 46 36 18 20 71 53 116 75 48 23 105 60 140 92 32 29 84 72 115 95 31 23
70 58 87 79 17 21 54 67 83 101 93 112 168 224 168 252 0 10 11 42 23 71 81
185 107 321 107 560 l0 157 -36 73 c-27 55 -57 94 -118 154 -44 44 -94 87
-111 95 -16 8 -41 22 -54 32 -20 15 -44 18 -155 17 -72 -1 -144 -6 -161 -11z
m260 -138 c3 -5 22 -17 41 -26 20 -10 40 -27 44 -40 5 -12 29 -38 54 -56 45
-34 66 -64 66 -97 0 -10 7 -24 15 -31 12 -10 15 -38 15 -134 -1 -215 -35 -379
-110 -526 -11 -21 -20 -47 -20 -57 0 -21 -57 -105 -147 -218 -35 -43 -63 -81
-63 -85 0 -5 -30 -31 -67 -58 -38 -28 -81 -64 -97 -81 -17 -17 -34 -31 -39
-31 -4 0 -23 -11 -40 -24 -18 -14 -53 -34 -79 -45 -25 -10 -77 -44 -115 -75
-54 -44 -75 -56 -104 -56 -38 0 -103 23 -114 39 -7 12 -115 71 -130 71 -6 0
-42 21 -81 46 -38 26 -83 51 -100 56 -18 4 -63 37 -100 71 -38 35 -91 76 -119
92 -71 40 -215 182 -215 212 0 13 -14 49 -30 80 -17 31 -30 68 -30 82 0 14 -7
60 -16 101 -39 187 -40 289 -3 499 8 46 37 125 68 181 14 25 69 52 139 67 173
37 180 38 199 21 10 -9 43 -20 73 -23 30 -4 70 -14 89 -22 41 -18 118 -94 154
-149 13 -21 36 -50 51 -63 15 -14 26 -35 26 -50 0 -32 37 -71 68 -71 34 0 112
65 112 93 0 24 116 163 166 199 32 24 166 88 219 106 39 13 212 15 220 2z"/>
</g>
</svg>
