<svg width="256" height="256" xmlns="http://www.w3.org/2000/svg">
 <g stroke="#000" stroke-linejoin="bevel" stroke-width="0.25">
  <g fill="#a58aaa">
   <path d="M0,0l256,0l0,256l-256,0l0,-256ZM29,96l5,46l8,20l43,36l8,2l33,20l7,1l6,-1l14,-12l11,-4l26,-20l23,-30l12,-30l3,-20l0,-32l-6,-12l-23,-19l-30,2l-22,12l-18,21l-6,-2l-11,-15l-12,-10l-16,-3l-3,-3l-11,0l-20,5l-8,5l-9,17l-4,26Z" stroke-width="0.0"/>
  </g>
  <g fill="#000000">
  </g>
  <g fill="#f596d8">
   <path d="M29,96l4,-26l9,-17l8,-5l20,-5l11,0l3,3l16,3l12,10l11,15l6,2l18,-21l22,-12l30,-2l23,19l6,12l0,32l-3,20l-12,30l-23,30l-26,20l-11,4l-14,12l-6,1l-7,-1l-33,-20l-8,-2l-43,-36l-8,-20l-5,-46Z"/>
  </g>
 </g>
</svg>
