<svg viewBox="0 0 62 16"><style>.a{fill:#828282;}</style><path d="M7.2 3.8c-0.3 0-0.5-0.1-0.7-0.3C7 3.2 7.2 2.7 7.2 2.2c0-0.5-0.3-1-1.1-1 -0.8 0-1.4 0.5-1.4 1.4 0 2.2 3.4 2.5 3.4 5.7 0 2.5-2 3.8-4.2 3.8 -1.7 0-3.2-0.7-3.2-2.6 0-1.6 1.2-2.5 2.2-2.5 0.5 0 1.3 0.2 1.3 1 -0.8 0-1.8 0.4-1.8 1.4 0 0.8 0.5 1.4 1.4 1.4 1 0 1.7-0.7 1.7-2 0-2.6-3.1-3.5-3.1-5.7 0-1.6 1.5-2.7 3.5-2.7 0.7 0 2.4 0.2 2.4 1.8C8.5 3.1 8 3.8 7.2 3.8z" class="a"/><path d="M12.6 5.5c-0.6 0-1 0.9-1.1 1.3l-1 4.9h-2.2l2.2-10.2 2.2-0.3 -0.8 3.8c0.6-0.7 1.3-0.8 1.8-0.8 1 0 1.7 0.5 1.7 1.7 0 1.2-0.7 3-0.7 3.9 0 0.4 0.2 0.6 0.6 0.6 0.7 0 0.9-0.5 1.3-1.3h0.6c-0.8 2.5-2 2.8-2.8 2.8 -1.3 0-1.8-0.8-1.8-1.7 0-1 0.7-2.9 0.7-3.8C13.2 5.8 13 5.5 12.6 5.5z" class="a"/><path d="M23.6 4.2l-1.1 5.1c0 0.2-0.1 0.3-0.1 0.5 0 0.4 0.2 0.6 0.6 0.6 0.6 0 1-0.7 1.2-1.4h0.6c-0.9 2.4-2.2 2.8-3 2.8 -0.8 0-1.4-0.5-1.5-1.4 -0.5 0.7-1.2 1.4-2.2 1.4 -1 0-2-0.6-2-2.4 0-2 1.2-5.2 3.9-5.2 0.9 0 1.2 0.3 1.2 0.8v0.1l0.2-0.8H23.6zM18.5 9.2c0 1.2 0.5 1.2 0.8 1.2 0.4 0 1.1-0.4 1.2-1.3l0.7-3.4c0-0.2-0.1-0.6-0.6-0.6C19.3 5.1 18.5 7.8 18.5 9.2z" class="a"/><path d="M32.2 1.2l-1.7 8.1c0 0.2-0.1 0.3-0.1 0.5 0 0.4 0.2 0.6 0.6 0.6 0.6 0 1-0.6 1.2-1.3h0.6c-0.9 2.4-2.2 2.7-3 2.7s-1.3-0.4-1.5-1.3c-0.4 0.7-1.2 1.4-2.2 1.4 -1 0-2-0.6-2-2.4 0-2 1.2-5.2 3.9-5.2 0.9 0 1.2 0.3 1.2 0.8v0.1l0.7-3.4L32.2 1.2zM28.3 9l0.7-3.4c0-0.2-0.2-0.5-0.6-0.5 -1.3 0-2.1 2.7-2.1 4.1 0 1.2 0.5 1.2 0.8 1.2 0.4 0 1-0.4 1.2-1.2V9z" class="a"/><path d="M35.3 10.6c1.2 0 1.9-0.7 2.7-1.5h0.5c-0.9 1.4-2.1 2.8-4.1 2.8 -1.4 0-2.3-0.7-2.3-2.4 0-1.7 1-5.3 4.1-5.3 1.3 0 1.7 0.7 1.7 1.4 0 1.7-1.6 3.1-3.4 3.2 0 0.2 0 0.4 0 0.6C34.2 10.3 34.6 10.6 35.3 10.6zM36.2 4.9c-0.8 0-1.5 1.6-1.8 3.1 1.2-0.1 2.2-1.2 2.2-2.5C36.5 5.1 36.5 4.9 36.2 4.9z" class="a"/><path d="M41.1 4.2l-0.2 0.9c0.5-0.4 1.1-0.9 1.8-0.9 0.7 0 1 0.6 1 1.1 0 0.5-0.3 1.1-1.1 1.1 -0.8 0-0.4-1-0.9-1 -0.4 0-0.7 0.2-1.1 0.6l-1.2 5.7h-2.2l1.6-7.5H41.1z" class="a"/><path d="M47.3 1.9l-0.5 2.4h0.9l-0.1 0.6h-0.9l-1 4.5c0 0.2-0.1 0.3-0.1 0.5 0 0.4 0.2 0.6 0.6 0.6 0.6 0 1.1-0.6 1.4-1.3h0.6c-0.9 2.4-2.3 2.8-3.1 2.8 -0.9 0-1.6-0.5-1.6-1.8 0-0.3 0-0.6 0.1-1l0.9-4.2H44l0.1-0.6h0.5l0.5-2.1L47.3 1.9z" class="a"/><path d="M53.4 6.5c0.1 0 0.1 0 0.2 0 0.7 0 1.7-0.4 2.3-0.9l0.1 0.4c-0.6 0.6-1.6 1.1-2.7 1.2 -0.2 2.8-1.7 4.5-3.6 4.5 -1.4 0-2.4-0.7-2.4-2.4 0-1.7 1-5.3 4.1-5.3C52.8 4.1 53.4 4.9 53.4 6.5zM52.1 7.3c-0.3-0.1-0.4-0.3-0.4-0.6 0-0.4 0.2-0.7 0.5-0.8 0-0.6-0.2-0.9-0.6-0.9 -1.1 0-2 2.7-2 4.2 0 1 0.2 1.2 0.8 1.2C51.1 10.4 51.9 9.1 52.1 7.3z" class="a"/><path d="M57.4 4.2l-1.1 5.1c0 0.1 0 0.3 0 0.4 0 0.3 0.1 0.7 0.5 0.7 0.6 0 1-0.6 1.2-1.3l1-4.8h2.2l-1.8 8.7c-0.4 2.1-1.7 2.6-2.7 2.6 -0.9 0-1.8-0.6-1.8-1.6 0-1.4 1.2-1.8 2.6-2.2l0.2-0.7c-0.6 0.7-1.3 0.9-1.8 0.9 -0.9 0-1.6-0.5-1.6-1.8 0-0.3 0-0.6 0.1-1l1-4.8H57.4zM56.2 14.1c0.3 0 0.7-0.3 0.9-1.2l0.2-0.9c-0.9 0.3-1.7 0.8-1.7 1.6C55.6 13.9 55.9 14.1 56.2 14.1z" class="a"/></svg>
