<?xml version="1.0" standalone="no"?>
<!DOCTYPE svg PUBLIC "-//W3C//DTD SVG 1.1//EN"  "http://www.w3.org/Graphics/SVG/1.1/DTD/svg11.dtd">
<svg viewBox="0 0 410 250" xmlns="http://www.w3.org/2000/svg" version="1.1">
  <path fill="none" stroke="black" stroke-width="4" stroke-linecap="round" d="M 20 60 l 0 0 M 20 50 l 0 -40 M 30 20 l 0 -10 M 40 20 l 0 -10 M 50 50 l 30 0 M 50 20 l 30 0 M 60 60 l 0 -50 M 70 60 l 0 -50 M 100 60 l 0 -50 M 90 40 L 90.0481 40.9802 L 90.1921 41.9509 L 90.4306 42.9028 L 90.7612 43.8268 L 91.1808 44.714 L 91.6853 45.5557 L 92.2699 46.3439 L 92.9289 47.0711 L 93.6561 47.7301 L 94.4443 48.3147 L 95.286 48.8192 L 96.1732 49.2388 L 97.0972 49.5694 L 98.0491 49.8079 L 99.0198 49.9518 L 100 50 L 100.98 49.9518 L 101.951 49.8078 L 102.903 49.5694 L 103.827 49.2388 L 104.714 48.8192 L 105.556 48.3147 L 106.344 47.7301 L 107.071 47.0711 L 107.73 46.3439 L 108.315 45.5557 L 108.819 44.714 L 109.239 43.8268 L 109.569 42.9028 L 109.808 41.9509 L 109.952 40.9802 M 110 30 L 109.952 29.0198 L 109.808 28.0491 L 109.569 27.0972 L 109.239 26.1732 L 108.819 25.286 L 108.315 24.4443 L 107.73 23.6561 L 107.071 22.9289 L 106.344 22.2699 L 105.556 21.6853 L 104.714 21.1808 L 103.827 20.7612 L 102.903 20.4306 L 101.951 20.1921 L 100.98 20.0482 L 100 20 L 99.0198 20.0482 L 98.0491 20.1921 L 97.0972 20.4306 L 96.1732 20.7612 L 95.286 21.1808 L 94.4443 21.6853 L 93.6561 22.2699 L 92.9289 22.9289 L 92.2699 23.6561 L 91.6853 24.4443 L 91.1808 25.286 L 90.7612 26.1732 L 90.4306 27.0972 L 90.1921 28.0491 L 90.0481 29.0198 M 110 40 l -20 -10 M 120 40 l 30 -10 M 120 20 L 120.048 20.9802 L 120.192 21.9509 L 120.431 22.9028 L 120.761 23.8268 L 121.181 24.714 L 121.685 25.5557 L 122.27 26.3439 L 122.929 27.0711 L 123.656 27.7301 L 124.444 28.3147 L 125.286 28.8192 L 126.173 29.2388 L 127.097 29.5694 L 128.049 29.8079 L 129.02 29.9518 L 130 30 L 130.98 29.9518 L 131.951 29.8079 L 132.903 29.5694 L 133.827 29.2388 L 134.714 28.8192 L 135.556 28.3147 L 136.344 27.7301 L 137.071 27.0711 L 137.73 26.3439 L 138.315 25.5557 L 138.819 24.714 L 139.239 23.8268 L 139.569 22.9028 L 139.808 21.9509 L 139.952 20.9802 L 140 20 L 139.952 19.0198 L 139.808 18.0491 L 139.569 17.0971 L 139.239 16.1732 L 138.819 15.286 L 138.315 14.4443 L 137.73 13.6561 L 137.071 12.9289 L 136.344 12.2699 L 135.556 11.6853 L 134.714 11.1808 L 133.827 10.7612 L 132.903 10.4306 L 131.951 10.1921 L 130.98 10.0482 L 130 10 L 129.02 10.0482 L 128.049 10.1921 L 127.097 10.4306 L 126.173 10.7612 L 125.286 11.1808 L 124.444 11.6853 L 123.656 12.2699 L 122.929 12.9289 L 122.27 13.6561 L 121.685 14.4443 L 121.181 15.286 L 120.761 16.1732 L 120.431 17.0972 L 120.192 18.0491 L 120.048 19.0198 M 130 50 L 130.048 50.9802 L 130.192 51.9509 L 130.431 52.9028 L 130.761 53.8268 L 131.181 54.714 L 131.685 55.5557 L 132.27 56.3439 L 132.929 57.0711 L 133.656 57.7301 L 134.444 58.3147 L 135.286 58.8192 L 136.173 59.2388 L 137.097 59.5694 L 138.049 59.8079 L 139.02 59.9518 L 140 60 L 140.98 59.9518 L 141.951 59.8078 L 142.903 59.5694 L 143.827 59.2388 L 144.714 58.8192 L 145.556 58.3147 L 146.344 57.7301 L 147.071 57.0711 L 147.73 56.3439 L 148.315 55.5557 L 148.819 54.714 L 149.239 53.8268 L 149.569 52.9028 L 149.808 51.9509 L 149.952 50.9802 L 150 50 L 149.952 49.0198 L 149.808 48.0491 L 149.569 47.0971 L 149.239 46.1732 L 148.819 45.286 L 148.315 44.4443 L 147.73 43.6561 L 147.071 42.9289 L 146.344 42.2699 L 145.556 41.6853 L 144.714 41.1808 L 143.827 40.7612 L 142.903 40.4306 L 141.951 40.1921 L 140.98 40.0482 L 140 40 L 139.02 40.0482 L 138.049 40.1922 L 137.097 40.4306 L 136.173 40.7612 L 135.286 41.1808 L 134.444 41.6853 L 133.656 42.2699 L 132.929 42.9289 L 132.27 43.6561 L 131.685 44.4443 L 131.181 45.286 L 130.761 46.1732 L 130.431 47.0972 L 130.192 48.0491 L 130.048 49.0198 M 160 50 l 0 -10 M 160 50 L 160.048 50.9802 L 160.192 51.9509 L 160.431 52.9028 L 160.761 53.8268 L 161.181 54.714 L 161.685 55.5557 L 162.27 56.3439 L 162.929 57.0711 L 163.656 57.7301 L 164.444 58.3147 L 165.286 58.8192 L 166.173 59.2388 L 167.097 59.5694 L 168.049 59.8079 L 169.02 59.9518 L 170 60 L 170.98 59.9518 L 171.951 59.8078 L 172.903 59.5694 L 173.827 59.2388 L 174.714 58.8192 L 175.556 58.3147 L 176.344 57.7301 L 177.071 57.0711 L 177.73 56.3439 L 178.315 55.5557 L 178.819 54.714 L 179.239 53.8268 L 179.569 52.9028 L 179.808 51.9509 L 179.952 50.9802 M 170 30 L 169.02 30.0482 L 168.049 30.1921 L 167.097 30.4306 L 166.173 30.7612 L 165.286 31.1808 L 164.444 31.6853 L 163.656 32.2699 L 162.929 32.9289 L 162.27 33.6561 L 161.685 34.4443 L 161.181 35.286 L 160.761 36.1732 L 160.431 37.0972 L 160.192 38.0491 L 160.048 39.0198 M 170 30 l 20 0 M 160 20 L 160.048 20.9802 L 160.192 21.9509 L 160.431 22.9028 L 160.761 23.8268 L 161.181 24.714 L 161.685 25.5557 L 162.27 26.3439 L 162.929 27.0711 L 163.656 27.7301 L 164.444 28.3147 L 165.286 28.8192 L 166.173 29.2388 L 167.097 29.5694 L 168.049 29.8079 L 169.02 29.9518 L 170 30 L 170.98 29.9518 L 171.951 29.8079 L 172.903 29.5694 L 173.827 29.2388 L 174.714 28.8192 L 175.556 28.3147 L 176.344 27.7301 L 177.071 27.0711 L 177.73 26.3439 L 178.315 25.5557 L 178.819 24.714 L 179.239 23.8268 L 179.569 22.9028 L 179.808 21.9509 L 179.952 20.9802 L 180 20 L 179.952 19.0198 L 179.808 18.0491 L 179.569 17.0971 L 179.239 16.1732 L 178.819 15.286 L 178.315 14.4443 L 177.73 13.6561 L 177.071 12.9289 L 176.344 12.2699 L 175.556 11.6853 L 174.714 11.1808 L 173.827 10.7612 L 172.903 10.4306 L 171.951 10.1921 L 170.98 10.0482 L 170 10 L 169.02 10.0482 L 168.049 10.1921 L 167.097 10.4306 L 166.173 10.7612 L 165.286 11.1808 L 164.444 11.6853 L 163.656 12.2699 L 162.929 12.9289 L 162.27 13.6561 L 161.685 14.4443 L 161.181 15.286 L 160.761 16.1732 L 160.431 17.0972 L 160.192 18.0491 L 160.048 19.0198 M 180 50 l 0 -20 M 180 50 L 180.048 50.9802 L 180.192 51.9509 L 180.431 52.9028 L 180.761 53.8268 L 181.181 54.714 L 181.685 55.5557 L 182.27 56.3439 L 182.929 57.0711 L 183.656 57.7301 L 184.444 58.3147 L 185.286 58.8192 L 186.173 59.2388 L 187.097 59.5694 L 188.049 59.8079 L 189.02 59.9518 L 190 60 L 190.98 59.9518 L 191.951 59.8078 L 192.903 59.5694 L 193.827 59.2388 L 194.714 58.8192 L 195.556 58.3147 L 196.344 57.7301 L 197.071 57.0711 L 197.73 56.3439 L 198.315 55.5557 L 198.819 54.714 L 199.239 53.8268 L 199.569 52.9028 L 199.808 51.9509 L 199.952 50.9802 M 210 50 l 0 -30 M 210 50 L 210.048 50.9802 L 210.192 51.9509 L 210.431 52.9028 L 210.761 53.8268 L 211.181 54.714 L 211.685 55.5557 L 212.27 56.3439 L 212.929 57.0711 L 213.656 57.7301 L 214.444 58.3147 L 215.286 58.8192 L 216.173 59.2388 L 217.097 59.5694 L 218.049 59.8079 L 219.02 59.9518 M 220 10 L 219.02 10.0482 L 218.049 10.1921 L 217.097 10.4306 L 216.173 10.7612 L 215.286 11.1808 L 214.444 11.6853 L 213.656 12.2699 L 212.929 12.9289 L 212.27 13.6561 L 211.685 14.4443 L 211.181 15.286 L 210.761 16.1732 L 210.431 17.0972 L 210.192 18.0491 L 210.048 19.0198 M 230 60 L 230.98 59.9518 L 231.951 59.8079 L 232.903 59.5694 L 233.827 59.2388 L 234.714 58.8192 L 235.556 58.3147 L 236.344 57.7301 L 237.071 57.0711 L 237.73 56.3439 L 238.315 55.5557 L 238.819 54.714 L 239.239 53.8268 L 239.569 52.9028 L 239.808 51.9509 L 239.952 50.9802 M 240 20 L 239.952 19.0198 L 239.808 18.0491 L 239.569 17.0972 L 239.239 16.1732 L 238.819 15.286 L 238.315 14.4443 L 237.73 13.6561 L 237.071 12.9289 L 236.344 12.2699 L 235.556 11.6853 L 234.714 11.1808 L 233.827 10.7612 L 232.903 10.4306 L 231.951 10.1921 L 230.98 10.0482 M 240 50 l 0 -30 M 250 40 l 20 -20 M 260 50 l 0 -40 M 270 40 l -20 -20 M 280 30 l 20 0 M 290 40 l 0 -20 M 310 60 l 10 -10 M 330 30 l 20 0 M 10 120 l 0 0 M 20 120 l 20 -50 M 50 110 l 0 -30 M 50 110 L 50.0482 110.98 L 50.1921 111.951 L 50.4306 112.903 L 50.7612 113.827 L 51.1808 114.714 L 51.6853 115.556 L 52.2699 116.344 L 52.9289 117.071 L 53.6561 117.73 L 54.4443 118.315 L 55.286 118.819 L 56.1732 119.239 L 57.0972 119.569 L 58.0491 119.808 L 59.0198 119.952 L 60 120 L 60.9802 119.952 L 61.9509 119.808 L 62.9029 119.569 L 63.8268 119.239 L 64.714 118.819 L 65.5557 118.315 L 66.3439 117.73 L 67.0711 117.071 L 67.7301 116.344 L 68.3147 115.556 L 68.8192 114.714 L 69.2388 113.827 L 69.5694 112.903 L 69.8079 111.951 L 69.9519 110.98 M 70 80 L 69.9519 79.0198 L 69.8079 78.0491 L 69.5694 77.0972 L 69.2388 76.1732 L 68.8192 75.286 L 68.3147 74.4443 L 67.7301 73.6561 L 67.0711 72.9289 L 66.3439 72.2699 L 65.5557 71.6853 L 64.714 71.1808 L 63.8268 70.7612 L 62.9028 70.4306 L 61.9509 70.1921 L 60.9802 70.0481 L 60 70 L 59.0198 70.0482 L 58.0491 70.1921 L 57.0971 70.4306 L 56.1732 70.7612 L 55.286 71.1808 L 54.4443 71.6853 L 53.6561 72.2699 L 52.9289 72.9289 L 52.2699 73.6561 L 51.6853 74.4443 L 51.1808 75.286 L 50.7612 76.1732 L 50.4306 77.0972 L 50.1921 78.0491 L 50.0482 79.0198 M 70 110 l 0 -30 M 80 80 l 10 -10 M 90 120 l 0 -50 M 100 120 l 20 0 M 100 120 l 20 -40 M 120 80 L 119.952 79.0198 L 119.808 78.0491 L 119.569 77.0972 L 119.239 76.1732 L 118.819 75.286 L 118.315 74.4443 L 117.73 73.6561 L 117.071 72.9289 L 116.344 72.2699 L 115.556 71.6853 L 114.714 71.1808 L 113.827 70.7612 L 112.903 70.4306 L 111.951 70.1921 L 110.98 70.0481 L 110 70 L 109.02 70.0482 L 108.049 70.1921 L 107.097 70.4306 L 106.173 70.7612 L 105.286 71.1808 L 104.444 71.6853 L 103.656 72.2699 L 102.929 72.9289 L 102.27 73.6561 L 101.685 74.4443 L 101.181 75.286 L 100.761 76.1732 L 100.431 77.0972 L 100.192 78.0491 L 100.048 79.0198 M 130 70 l 20 0 M 130 110 L 130.048 110.98 L 130.192 111.951 L 130.431 112.903 L 130.761 113.827 L 131.181 114.714 L 131.685 115.556 L 132.27 116.344 L 132.929 117.071 L 133.656 117.73 L 134.444 118.315 L 135.286 118.819 L 136.173 119.239 L 137.097 119.569 L 138.049 119.808 L 139.02 119.952 L 140 120 L 140.98 119.952 L 141.951 119.808 L 142.903 119.569 L 143.827 119.239 L 144.714 118.819 L 145.556 118.315 L 146.344 117.73 L 147.071 117.071 L 147.73 116.344 L 148.315 115.556 L 148.819 114.714 L 149.239 113.827 L 149.569 112.903 L 149.808 111.951 L 149.952 110.98 M 150 100 L 149.952 99.0198 L 149.808 98.0491 L 149.569 97.0972 L 149.239 96.1732 L 148.819 95.286 L 148.315 94.4443 L 147.73 93.6561 L 147.071 92.9289 L 146.344 92.2699 L 145.556 91.6853 L 144.714 91.1808 L 143.827 90.7612 L 142.903 90.4306 L 141.951 90.1921 L 140.98 90.0481 M 140 90 l 10 -20 M 150 110 l 0 -10 M 160 100 l 10 -30 M 160 100 l 20 0 M 180 120 l 0 -50 M 190 100 l 0 -30 M 190 70 l 20 0 M 190 110 L 190.048 110.98 L 190.192 111.951 L 190.431 112.903 L 190.761 113.827 L 191.181 114.714 L 191.685 115.556 L 192.27 116.344 L 192.929 117.071 L 193.656 117.73 L 194.444 118.315 L 195.286 118.819 L 196.173 119.239 L 197.097 119.569 L 198.049 119.808 L 199.02 119.952 L 200 120 L 200.98 119.952 L 201.951 119.808 L 202.903 119.569 L 203.827 119.239 L 204.714 118.819 L 205.556 118.315 L 206.344 117.73 L 207.071 117.071 L 207.73 116.344 L 208.315 115.556 L 208.819 114.714 L 209.239 113.827 L 209.569 112.903 L 209.808 111.951 L 209.952 110.98 M 210 100 L 209.952 99.0198 L 209.808 98.0491 L 209.569 97.0972 L 209.239 96.1732 L 208.819 95.286 L 208.315 94.4443 L 207.73 93.6561 L 207.071 92.9289 L 206.344 92.2699 L 205.556 91.6853 L 204.714 91.1808 L 203.827 90.7612 L 202.903 90.4306 L 201.951 90.1921 L 200.98 90.0481 L 200 90 L 199.02 90.0482 L 198.049 90.1921 L 197.097 90.4306 L 196.173 90.7612 L 195.286 91.1808 L 194.444 91.6853 L 193.656 92.2699 L 192.929 92.9289 L 192.27 93.6561 L 191.685 94.4443 L 191.181 95.286 L 190.761 96.1732 L 190.431 97.0972 L 190.192 98.0491 L 190.048 99.0198 M 210 110 l 0 -10 M 220 110 l 0 -30 M 220 110 L 220.048 110.98 L 220.192 111.951 L 220.431 112.903 L 220.761 113.827 L 221.181 114.714 L 221.685 115.556 L 222.27 116.344 L 222.929 117.071 L 223.656 117.73 L 224.444 118.315 L 225.286 118.819 L 226.173 119.239 L 227.097 119.569 L 228.049 119.808 L 229.02 119.952 L 230 120 L 230.98 119.952 L 231.951 119.808 L 232.903 119.569 L 233.827 119.239 L 234.714 118.819 L 235.556 118.315 L 236.344 117.73 L 237.071 117.071 L 237.73 116.344 L 238.315 115.556 L 238.819 114.714 L 239.239 113.827 L 239.569 112.903 L 239.808 111.951 L 239.952 110.98 M 240 100 L 239.952 99.0198 L 239.808 98.0491 L 239.569 97.0972 L 239.239 96.1732 L 238.819 95.286 L 238.315 94.4443 L 237.73 93.6561 L 237.071 92.9289 L 236.344 92.2699 L 235.556 91.6853 L 234.714 91.1808 L 233.827 90.7612 L 232.903 90.4306 L 231.951 90.1921 L 230.98 90.0481 L 230 90 L 229.02 90.0482 L 228.049 90.1921 L 227.097 90.4306 L 226.173 90.7612 L 225.286 91.1808 L 224.444 91.6853 L 223.656 92.2699 L 222.929 92.9289 L 222.27 93.6561 L 221.685 94.4443 L 221.181 95.286 L 220.761 96.1732 L 220.431 97.0972 L 220.192 98.0491 L 220.048 99.0198 M 240 80 L 239.952 79.0198 L 239.808 78.0491 L 239.569 77.0972 L 239.239 76.1732 L 238.819 75.286 L 238.315 74.4443 L 237.73 73.6561 L 237.071 72.9289 L 236.344 72.2699 L 235.556 71.6853 L 234.714 71.1808 L 233.827 70.7612 L 232.903 70.4306 L 231.951 70.1921 L 230.98 70.0481 L 230 70 L 229.02 70.0482 L 228.049 70.1921 L 227.097 70.4306 L 226.173 70.7612 L 225.286 71.1808 L 224.444 71.6853 L 223.656 72.2699 L 222.929 72.9289 L 222.27 73.6561 L 221.685 74.4443 L 221.181 75.286 L 220.761 76.1732 L 220.431 77.0972 L 220.192 78.0491 L 220.048 79.0198 M 240 110 l 0 -10 M 250 120 l 20 -50 M 250 70 l 20 0 M 280 110 l 0 -10 M 280 110 L 280.048 110.98 L 280.192 111.951 L 280.431 112.903 L 280.761 113.827 L 281.181 114.714 L 281.685 115.556 L 282.27 116.344 L 282.929 117.071 L 283.656 117.73 L 284.444 118.315 L 285.286 118.819 L 286.173 119.239 L 287.097 119.569 L 288.049 119.808 L 289.02 119.952 L 290 120 L 290.98 119.952 L 291.951 119.808 L 292.903 119.569 L 293.827 119.239 L 294.714 118.819 L 295.556 118.315 L 296.344 117.73 L 297.071 117.071 L 297.73 116.344 L 298.315 115.556 L 298.819 114.714 L 299.239 113.827 L 299.569 112.903 L 299.808 111.951 L 299.952 110.98 M 300 100 L 299.952 99.0198 L 299.808 98.0491 L 299.569 97.0972 L 299.239 96.1732 L 298.819 95.286 L 298.315 94.4443 L 297.73 93.6561 L 297.071 92.9289 L 296.344 92.2699 L 295.556 91.6853 L 294.714 91.1808 L 293.827 90.7612 L 292.903 90.4306 L 291.951 90.1921 L 290.98 90.0481 L 290 90 L 289.02 90.0482 L 288.049 90.1921 L 287.097 90.4306 L 286.173 90.7612 L 285.286 91.1808 L 284.444 91.6853 L 283.656 92.2699 L 282.929 92.9289 L 282.27 93.6561 L 281.685 94.4443 L 281.181 95.286 L 280.761 96.1732 L 280.431 97.0972 L 280.192 98.0491 L 280.048 99.0198 M 280 80 L 280.048 80.9802 L 280.192 81.9509 L 280.431 82.9028 L 280.761 83.8268 L 281.181 84.714 L 281.685 85.5557 L 282.27 86.3439 L 282.929 87.0711 L 283.656 87.7301 L 284.444 88.3147 L 285.286 88.8192 L 286.173 89.2388 L 287.097 89.5694 L 288.049 89.8079 L 289.02 89.9519 L 290 90 L 290.98 89.9518 L 291.951 89.8079 L 292.903 89.5694 L 293.827 89.2388 L 294.714 88.8192 L 295.556 88.3147 L 296.344 87.7301 L 297.071 87.0711 L 297.73 86.3439 L 298.315 85.5557 L 298.819 84.714 L 299.239 83.8268 L 299.569 82.9028 L 299.808 81.9509 L 299.952 80.9802 L 300 80 L 299.952 79.0198 L 299.808 78.0491 L 299.569 77.0971 L 299.239 76.1732 L 298.819 75.286 L 298.315 74.4443 L 297.73 73.6561 L 297.071 72.9289 L 296.344 72.2699 L 295.556 71.6853 L 294.714 71.1808 L 293.827 70.7612 L 292.903 70.4306 L 291.951 70.1921 L 290.98 70.0481 L 290 70 L 289.02 70.0482 L 288.049 70.1921 L 287.097 70.4306 L 286.173 70.7612 L 285.286 71.1808 L 284.444 71.6853 L 283.656 72.2699 L 282.929 72.9289 L 282.27 73.6561 L 281.685 74.4443 L 281.181 75.286 L 280.761 76.1732 L 280.431 77.0972 L 280.192 78.0491 L 280.048 79.0198 M 300 110 l 0 -10 M 310 90 l 0 -10 M 310 110 L 310.048 110.98 L 310.192 111.951 L 310.431 112.903 L 310.761 113.827 L 311.181 114.714 L 311.685 115.556 L 312.27 116.344 L 312.929 117.071 L 313.656 117.73 L 314.444 118.315 L 315.286 118.819 L 316.173 119.239 L 317.097 119.569 L 318.049 119.808 L 319.02 119.952 L 320 120 L 320.98 119.952 L 321.951 119.808 L 322.903 119.569 L 323.827 119.239 L 324.714 118.819 L 325.556 118.315 L 326.344 117.73 L 327.071 117.071 L 327.73 116.344 L 328.315 115.556 L 328.819 114.714 L 329.239 113.827 L 329.569 112.903 L 329.808 111.951 L 329.952 110.98 M 310 90 L 310.048 90.9802 L 310.192 91.9509 L 310.431 92.9028 L 310.761 93.8268 L 311.181 94.714 L 311.685 95.5557 L 312.27 96.3439 L 312.929 97.0711 L 313.656 97.7301 L 314.444 98.3147 L 315.286 98.8192 L 316.173 99.2388 L 317.097 99.5694 L 318.049 99.8079 L 319.02 99.9519 L 320 100 L 320.98 99.9518 L 321.951 99.8079 L 322.903 99.5694 L 323.827 99.2388 L 324.714 98.8192 L 325.556 98.3147 L 326.344 97.7301 L 327.071 97.0711 L 327.73 96.3439 L 328.315 95.5557 L 328.819 94.714 L 329.239 93.8268 L 329.569 92.9028 L 329.808 91.9509 L 329.952 90.9802 M 330 80 L 329.952 79.0198 L 329.808 78.0491 L 329.569 77.0972 L 329.239 76.1732 L 328.819 75.286 L 328.315 74.4443 L 327.73 73.6561 L 327.071 72.9289 L 326.344 72.2699 L 325.556 71.6853 L 324.714 71.1808 L 323.827 70.7612 L 322.903 70.4306 L 321.951 70.1921 L 320.98 70.0481 L 320 70 L 319.02 70.0482 L 318.049 70.1921 L 317.097 70.4306 L 316.173 70.7612 L 315.286 71.1808 L 314.444 71.6853 L 313.656 72.2699 L 312.929 72.9289 L 312.27 73.6561 L 311.685 74.4443 L 311.181 75.286 L 310.761 76.1732 L 310.431 77.0972 L 310.192 78.0491 L 310.048 79.0198 M 330 110 l 0 -30 M 340 110 l 0 -30 M 350 120 l 10 0 M 350 70 l 10 0 M 340 110 L 340.048 110.98 L 340.192 111.951 L 340.431 112.903 L 340.761 113.827 L 341.181 114.714 L 341.685 115.556 L 342.27 116.344 L 342.929 117.071 L 343.656 117.73 L 344.444 118.315 L 345.286 118.819 L 346.173 119.239 L 347.097 119.569 L 348.049 119.808 L 349.02 119.952 M 350 70 L 349.02 70.0481 L 348.049 70.1921 L 347.097 70.4306 L 346.173 70.7612 L 345.286 71.1808 L 344.444 71.6853 L 343.656 72.2699 L 342.929 72.9289 L 342.27 73.6561 L 341.685 74.4443 L 341.181 75.286 L 340.761 76.1732 L 340.431 77.0972 L 340.192 78.0491 L 340.048 79.0198 M 370 80 L 369.952 79.0198 L 369.808 78.0491 L 369.569 77.0972 L 369.239 76.1732 L 368.819 75.286 L 368.315 74.4443 L 367.73 73.6561 L 367.071 72.9289 L 366.344 72.2699 L 365.556 71.6853 L 364.714 71.1808 L 363.827 70.7612 L 362.903 70.4306 L 361.951 70.1921 L 360.98 70.0481 M 350 100 L 350.048 100.98 L 350.192 101.951 L 350.431 102.903 L 350.761 103.827 L 351.181 104.714 L 351.685 105.556 L 352.27 106.344 L 352.929 107.071 L 353.656 107.73 L 354.444 108.315 L 355.286 108.819 L 356.173 109.239 L 357.097 109.569 L 358.049 109.808 L 359.02 109.952 L 360 110 L 360.98 109.952 L 361.951 109.808 L 362.903 109.569 L 363.827 109.239 L 364.714 108.819 L 365.556 108.315 L 366.344 107.73 L 367.071 107.071 L 367.73 106.344 L 368.315 105.556 L 368.819 104.714 L 369.239 103.827 L 369.569 102.903 L 369.808 101.951 L 369.952 100.98 L 370 100 L 369.952 99.0198 L 369.808 98.0491 L 369.569 97.0971 L 369.239 96.1732 L 368.819 95.286 L 368.315 94.4443 L 367.73 93.6561 L 367.071 92.9289 L 366.344 92.2699 L 365.556 91.6853 L 364.714 91.1808 L 363.827 90.7612 L 362.903 90.4306 L 361.951 90.1921 L 360.98 90.0481 L 360 90 L 359.02 90.0482 L 358.049 90.1921 L 357.097 90.4306 L 356.173 90.7612 L 355.286 91.1808 L 354.444 91.6853 L 353.656 92.2699 L 352.929 92.9289 L 352.27 93.6561 L 351.685 94.4443 L 351.181 95.286 L 350.761 96.1732 L 350.431 97.0972 L 350.192 98.0491 L 350.048 99.0198 M 370 110 l 0 -30 M 380 90 l 10 0 M 380 110 L 380.048 110.98 L 380.192 111.951 L 380.431 112.903 L 380.761 113.827 L 381.181 114.714 L 381.685 115.556 L 382.27 116.344 L 382.929 117.071 L 383.656 117.73 L 384.444 118.315 L 385.286 118.819 L 386.173 119.239 L 387.097 119.569 L 388.049 119.808 L 389.02 119.952 L 390 120 L 390.98 119.952 L 391.951 119.808 L 392.903 119.569 L 393.827 119.239 L 394.714 118.819 L 395.556 118.315 L 396.344 117.73 L 397.071 117.071 L 397.73 116.344 L 398.315 115.556 L 398.819 114.714 L 399.239 113.827 L 399.569 112.903 L 399.808 111.951 L 399.952 110.98 L 400 110 L 399.952 109.02 L 399.808 108.049 L 399.569 107.097 L 399.239 106.173 L 398.819 105.286 L 398.315 104.444 L 397.73 103.656 L 397.071 102.929 L 396.344 102.27 L 395.556 101.685 L 394.714 101.181 L 393.827 100.761 L 392.903 100.431 L 391.951 100.192 L 390.98 100.048 L 390 100 L 389.02 100.048 L 388.049 100.192 L 387.097 100.431 L 386.173 100.761 L 385.286 101.181 L 384.444 101.685 L 383.656 102.27 L 382.929 102.929 L 382.27 103.656 L 381.685 104.444 L 381.181 105.286 L 380.761 106.173 L 380.431 107.097 L 380.192 108.049 L 380.048 109.02 M 400 100 L 399.952 99.0198 L 399.808 98.0491 L 399.569 97.0972 L 399.239 96.1732 L 398.819 95.286 L 398.315 94.4443 L 397.73 93.6561 L 397.071 92.9289 L 396.344 92.2699 L 395.556 91.6853 L 394.714 91.1808 L 393.827 90.7612 L 392.903 90.4306 L 391.951 90.1921 L 390.98 90.0481 M 400 120 l 0 -20 M 10 180 l 0 -50 M 10 170 L 10.0482 170.98 L 10.1921 171.951 L 10.4306 172.903 L 10.7612 173.827 L 11.1808 174.714 L 11.6853 175.556 L 12.2699 176.344 L 12.9289 177.071 L 13.6561 177.73 L 14.4443 178.315 L 15.286 178.819 L 16.1732 179.239 L 17.0972 179.569 L 18.0491 179.808 L 19.0198 179.952 L 20 180 L 20.9802 179.952 L 21.9509 179.808 L 22.9029 179.569 L 23.8268 179.239 L 24.714 178.819 L 25.5557 178.315 L 26.3439 177.73 L 27.0711 177.071 L 27.7301 176.344 L 28.3147 175.556 L 28.8192 174.714 L 29.2388 173.827 L 29.5694 172.903 L 29.8079 171.951 L 29.9518 170.98 M 30 160 L 29.9518 159.02 L 29.8079 158.049 L 29.5694 157.097 L 29.2388 156.173 L 28.8192 155.286 L 28.3147 154.444 L 27.7301 153.656 L 27.0711 152.929 L 26.3439 152.27 L 25.5557 151.685 L 24.714 151.181 L 23.8268 150.761 L 22.9028 150.431 L 21.9509 150.192 L 20.9802 150.048 L 20 150 L 19.0198 150.048 L 18.0491 150.192 L 17.0972 150.431 L 16.1732 150.761 L 15.286 151.181 L 14.4443 151.685 L 13.6561 152.27 L 12.9289 152.929 L 12.2699 153.656 L 11.6853 154.444 L 11.1808 155.286 L 10.7612 156.173 L 10.4306 157.097 L 10.1921 158.049 L 10.0482 159.02 M 30 170 l 0 -10 M 40 170 l 0 -10 M 40 170 L 40.0482 170.98 L 40.1921 171.951 L 40.4306 172.903 L 40.7612 173.827 L 41.1808 174.714 L 41.6853 175.556 L 42.2699 176.344 L 42.9289 177.071 L 43.6561 177.73 L 44.4443 178.315 L 45.286 178.819 L 46.1732 179.239 L 47.0972 179.569 L 48.0491 179.808 L 49.0198 179.952 L 50 180 L 50.9802 179.952 L 51.9509 179.808 L 52.9029 179.569 L 53.8268 179.239 L 54.714 178.819 L 55.5557 178.315 L 56.3439 177.73 L 57.0711 177.071 L 57.7301 176.344 L 58.3147 175.556 L 58.8192 174.714 L 59.2388 173.827 L 59.5694 172.903 L 59.8079 171.951 L 59.9518 170.98 M 60 160 L 59.9518 159.02 L 59.8079 158.049 L 59.5694 157.097 L 59.2388 156.173 L 58.8192 155.286 L 58.3147 154.444 L 57.7301 153.656 L 57.0711 152.929 L 56.3439 152.27 L 55.5557 151.685 L 54.714 151.181 L 53.8268 150.761 L 52.9028 150.431 L 51.9509 150.192 L 50.9802 150.048 L 50 150 L 49.0198 150.048 L 48.0491 150.192 L 47.0971 150.431 L 46.1732 150.761 L 45.286 151.181 L 44.4443 151.685 L 43.6561 152.27 L 42.9289 152.929 L 42.2699 153.656 L 41.6853 154.444 L 41.1808 155.286 L 40.7612 156.173 L 40.4306 157.097 L 40.1921 158.049 L 40.0482 159.02 M 70 170 l 0 -10 M 70 170 L 70.0481 170.98 L 70.1921 171.951 L 70.4306 172.903 L 70.7612 173.827 L 71.1808 174.714 L 71.6853 175.556 L 72.2699 176.344 L 72.9289 177.071 L 73.6561 177.73 L 74.4443 178.315 L 75.286 178.819 L 76.1732 179.239 L 77.0972 179.569 L 78.0491 179.808 L 79.0198 179.952 L 80 180 L 80.9802 179.952 L 81.9509 179.808 L 82.9029 179.569 L 83.8268 179.239 L 84.714 178.819 L 85.5557 178.315 L 86.3439 177.73 L 87.0711 177.071 L 87.7301 176.344 L 88.3147 175.556 L 88.8192 174.714 L 89.2388 173.827 L 89.5694 172.903 L 89.8079 171.951 L 89.9519 170.98 M 90 160 L 89.9519 159.02 L 89.8079 158.049 L 89.5694 157.097 L 89.2388 156.173 L 88.8192 155.286 L 88.3147 154.444 L 87.7301 153.656 L 87.0711 152.929 L 86.3439 152.27 L 85.5557 151.685 L 84.714 151.181 L 83.8268 150.761 L 82.9028 150.431 L 81.9509 150.192 L 80.9802 150.048 L 80 150 L 79.0198 150.048 L 78.0491 150.192 L 77.0972 150.431 L 76.1732 150.761 L 75.286 151.181 L 74.4443 151.685 L 73.6561 152.27 L 72.9289 152.929 L 72.2699 153.656 L 71.6853 154.444 L 71.1808 155.286 L 70.7612 156.173 L 70.4306 157.097 L 70.1921 158.049 L 70.0481 159.02 M 90 180 l 0 -50 M 100 170 l 0 -10 M 100 160 l 20 0 M 100 170 L 100.048 170.98 L 100.192 171.951 L 100.431 172.903 L 100.761 173.827 L 101.181 174.714 L 101.685 175.556 L 102.27 176.344 L 102.929 177.071 L 103.656 177.73 L 104.444 178.315 L 105.286 178.819 L 106.173 179.239 L 107.097 179.569 L 108.049 179.808 L 109.02 179.952 L 110 180 L 110.98 179.952 L 111.951 179.808 L 112.903 179.569 L 113.827 179.239 L 114.714 178.819 L 115.556 178.315 L 116.344 177.73 L 117.071 177.071 L 117.73 176.344 L 118.315 175.556 L 118.819 174.714 L 119.239 173.827 L 119.569 172.903 L 119.808 171.951 L 119.952 170.98 M 120 160 L 119.952 159.02 L 119.808 158.049 L 119.569 157.097 L 119.239 156.173 L 118.819 155.286 L 118.315 154.444 L 117.73 153.656 L 117.071 152.929 L 116.344 152.27 L 115.556 151.685 L 114.714 151.181 L 113.827 150.761 L 112.903 150.431 L 111.951 150.192 L 110.98 150.048 L 110 150 L 109.02 150.048 L 108.049 150.192 L 107.097 150.431 L 106.173 150.761 L 105.286 151.181 L 104.444 151.685 L 103.656 152.27 L 102.929 152.929 L 102.27 153.656 L 101.685 154.444 L 101.181 155.286 L 100.761 156.173 L 100.431 157.097 L 100.192 158.049 L 100.048 159.02 M 130 150 l 20 0 M 140 180 l 0 -40 M 150 130 L 149.02 130.048 L 148.049 130.192 L 147.097 130.431 L 146.173 130.761 L 145.286 131.181 L 144.444 131.685 L 143.656 132.27 L 142.929 132.929 L 142.27 133.656 L 141.685 134.444 L 141.181 135.286 L 140.761 136.173 L 140.431 137.097 L 140.192 138.049 L 140.048 139.02 M 160 180 l 10 0 M 170 180 L 170.98 179.952 L 171.951 179.808 L 172.903 179.569 L 173.827 179.239 L 174.714 178.819 L 175.556 178.315 L 176.344 177.73 L 177.071 177.071 L 177.73 176.344 L 178.315 175.556 L 178.819 174.714 L 179.239 173.827 L 179.569 172.903 L 179.808 171.951 L 179.952 170.98 M 160 160 L 160.048 160.98 L 160.192 161.951 L 160.431 162.903 L 160.761 163.827 L 161.181 164.714 L 161.685 165.556 L 162.27 166.344 L 162.929 167.071 L 163.656 167.73 L 164.444 168.315 L 165.286 168.819 L 166.173 169.239 L 167.097 169.569 L 168.049 169.808 L 169.02 169.952 L 170 170 L 170.98 169.952 L 171.951 169.808 L 172.903 169.569 L 173.827 169.239 L 174.714 168.819 L 175.556 168.315 L 176.344 167.73 L 177.071 167.071 L 177.73 166.344 L 178.315 165.556 L 178.819 164.714 L 179.239 163.827 L 179.569 162.903 L 179.808 161.951 L 179.952 160.98 L 180 160 L 179.952 159.02 L 179.808 158.049 L 179.569 157.097 L 179.239 156.173 L 178.819 155.286 L 178.315 154.444 L 177.73 153.656 L 177.071 152.929 L 176.344 152.27 L 175.556 151.685 L 174.714 151.181 L 173.827 150.761 L 172.903 150.431 L 171.951 150.192 L 170.98 150.048 L 170 150 L 169.02 150.048 L 168.049 150.192 L 167.097 150.431 L 166.173 150.761 L 165.286 151.181 L 164.444 151.685 L 163.656 152.27 L 162.929 152.929 L 162.27 153.656 L 161.685 154.444 L 161.181 155.286 L 160.761 156.173 L 160.431 157.097 L 160.192 158.049 L 160.048 159.02 M 180 170 l 0 -20 M 190 180 l 0 -50 M 210 160 L 209.952 159.02 L 209.808 158.049 L 209.569 157.097 L 209.239 156.173 L 208.819 155.286 L 208.315 154.444 L 207.73 153.656 L 207.071 152.929 L 206.344 152.27 L 205.556 151.685 L 204.714 151.181 L 203.827 150.761 L 202.903 150.431 L 201.951 150.192 L 200.98 150.048 L 200 150 L 199.02 150.048 L 198.049 150.192 L 197.097 150.431 L 196.173 150.761 L 195.286 151.181 L 194.444 151.685 L 193.656 152.27 L 192.929 152.929 L 192.27 153.656 L 191.685 154.444 L 191.181 155.286 L 190.761 156.173 L 190.431 157.097 L 190.192 158.049 L 190.048 159.02 M 210 180 l 0 -20 M 220 180 l 0 -30 M 220 140 l 0 0 M 230 170 L 230.048 170.98 L 230.192 171.951 L 230.431 172.903 L 230.761 173.827 L 231.181 174.714 L 231.685 175.556 L 232.27 176.344 L 232.929 177.071 L 233.656 177.73 L 234.444 178.315 L 235.286 178.819 L 236.173 179.239 L 237.097 179.569 L 238.049 179.808 L 239.02 179.952 L 240 180 L 240.98 179.952 L 241.951 179.808 L 242.903 179.569 L 243.827 179.239 L 244.714 178.819 L 245.556 178.315 L 246.344 177.73 L 247.071 177.071 L 247.73 176.344 L 248.315 175.556 L 248.819 174.714 L 249.239 173.827 L 249.569 172.903 L 249.808 171.951 L 249.952 170.98 M 250 170 l 0 -20 M 250 140 l 0 0 M 260 180 l 0 -50 M 260 160 l 20 -10 M 280 180 l -20 -20 M 290 180 l 0 -50 M 300 180 l 0 -30 M 320 160 L 319.952 159.02 L 319.808 158.049 L 319.569 157.097 L 319.239 156.173 L 318.819 155.286 L 318.315 154.444 L 317.73 153.656 L 317.071 152.929 L 316.344 152.27 L 315.556 151.685 L 314.714 151.181 L 313.827 150.761 L 312.903 150.431 L 311.951 150.192 L 310.98 150.048 L 310 150 L 309.02 150.048 L 308.049 150.192 L 307.097 150.431 L 306.173 150.761 L 305.286 151.181 L 304.444 151.685 L 303.656 152.27 L 302.929 152.929 L 302.27 153.656 L 301.685 154.444 L 301.181 155.286 L 300.761 156.173 L 300.431 157.097 L 300.192 158.049 L 300.048 159.02 M 320 180 l 0 -20 M 340 160 L 339.952 159.02 L 339.808 158.049 L 339.569 157.097 L 339.239 156.173 L 338.819 155.286 L 338.315 154.444 L 337.73 153.656 L 337.071 152.929 L 336.344 152.27 L 335.556 151.685 L 334.714 151.181 L 333.827 150.761 L 332.903 150.431 L 331.951 150.192 L 330.98 150.048 L 330 150 L 329.02 150.048 L 328.049 150.192 L 327.097 150.431 L 326.173 150.761 L 325.286 151.181 L 324.444 151.685 L 323.656 152.27 L 322.929 152.929 L 322.27 153.656 L 321.685 154.444 L 321.181 155.286 L 320.761 156.173 L 320.431 157.097 L 320.192 158.049 L 320.048 159.02 M 340 180 l 0 -20 M 350 180 l 0 -30 M 370 160 L 369.952 159.02 L 369.808 158.049 L 369.569 157.097 L 369.239 156.173 L 368.819 155.286 L 368.315 154.444 L 367.73 153.656 L 367.071 152.929 L 366.344 152.27 L 365.556 151.685 L 364.714 151.181 L 363.827 150.761 L 362.903 150.431 L 361.951 150.192 L 360.98 150.048 L 360 150 L 359.02 150.048 L 358.049 150.192 L 357.097 150.431 L 356.173 150.761 L 355.286 151.181 L 354.444 151.685 L 353.656 152.27 L 352.929 152.929 L 352.27 153.656 L 351.685 154.444 L 351.181 155.286 L 350.761 156.173 L 350.431 157.097 L 350.192 158.049 L 350.048 159.02 M 370 180 l 0 -20 M 380 170 l 0 -10 M 380 170 L 380.048 170.98 L 380.192 171.951 L 380.431 172.903 L 380.761 173.827 L 381.181 174.714 L 381.685 175.556 L 382.27 176.344 L 382.929 177.071 L 383.656 177.73 L 384.444 178.315 L 385.286 178.819 L 386.173 179.239 L 387.097 179.569 L 388.049 179.808 L 389.02 179.952 L 390 180 L 390.98 179.952 L 391.951 179.808 L 392.903 179.569 L 393.827 179.239 L 394.714 178.819 L 395.556 178.315 L 396.344 177.73 L 397.071 177.071 L 397.73 176.344 L 398.315 175.556 L 398.819 174.714 L 399.239 173.827 L 399.569 172.903 L 399.808 171.951 L 399.952 170.98 M 400 160 L 399.952 159.02 L 399.808 158.049 L 399.569 157.097 L 399.239 156.173 L 398.819 155.286 L 398.315 154.444 L 397.73 153.656 L 397.071 152.929 L 396.344 152.27 L 395.556 151.685 L 394.714 151.181 L 393.827 150.761 L 392.903 150.431 L 391.951 150.192 L 390.98 150.048 L 390 150 L 389.02 150.048 L 388.049 150.192 L 387.097 150.431 L 386.173 150.761 L 385.286 151.181 L 384.444 151.685 L 383.656 152.27 L 382.929 152.929 L 382.27 153.656 L 381.685 154.444 L 381.181 155.286 L 380.761 156.173 L 380.431 157.097 L 380.192 158.049 L 380.048 159.02 M 400 170 l 0 -10 M 10 240 l 0 -30 M 10 220 L 10.0482 220.98 L 10.1921 221.951 L 10.4306 222.903 L 10.7612 223.827 L 11.1808 224.714 L 11.6853 225.556 L 12.2699 226.344 L 12.9289 227.071 L 13.6561 227.73 L 14.4443 228.315 L 15.286 228.819 L 16.1732 229.239 L 17.0972 229.569 L 18.0491 229.808 L 19.0198 229.952 L 20 230 L 20.9802 229.952 L 21.9509 229.808 L 22.9029 229.569 L 23.8268 229.239 L 24.714 228.819 L 25.5557 228.315 L 26.3439 227.73 L 27.0711 227.071 L 27.7301 226.344 L 28.3147 225.556 L 28.8192 224.714 L 29.2388 223.827 L 29.5694 222.903 L 29.8079 221.951 L 29.9518 220.98 L 30 220 L 29.9518 219.02 L 29.8079 218.049 L 29.5694 217.097 L 29.2388 216.173 L 28.8192 215.286 L 28.3147 214.444 L 27.7301 213.656 L 27.0711 212.929 L 26.3439 212.27 L 25.5557 211.685 L 24.714 211.181 L 23.8268 210.761 L 22.9028 210.431 L 21.9509 210.192 L 20.9802 210.048 L 20 210 L 19.0198 210.048 L 18.0491 210.192 L 17.0971 210.431 L 16.1732 210.761 L 15.286 211.181 L 14.4443 211.685 L 13.6561 212.27 L 12.9289 212.929 L 12.2699 213.656 L 11.6853 214.444 L 11.1808 215.286 L 10.7612 216.173 L 10.4306 217.097 L 10.1921 218.049 L 10.0482 219.02 M 40 220 L 40.0482 220.98 L 40.1921 221.951 L 40.4306 222.903 L 40.7612 223.827 L 41.1808 224.714 L 41.6853 225.556 L 42.2699 226.344 L 42.9289 227.071 L 43.6561 227.73 L 44.4443 228.315 L 45.286 228.819 L 46.1732 229.239 L 47.0972 229.569 L 48.0491 229.808 L 49.0198 229.952 L 50 230 L 50.9802 229.952 L 51.9509 229.808 L 52.9029 229.569 L 53.8268 229.239 L 54.714 228.819 L 55.5557 228.315 L 56.3439 227.73 L 57.0711 227.071 L 57.7301 226.344 L 58.3147 225.556 L 58.8192 224.714 L 59.2388 223.827 L 59.5694 222.903 L 59.8079 221.951 L 59.9518 220.98 L 60 220 L 59.9518 219.02 L 59.8078 218.049 L 59.5694 217.097 L 59.2388 216.173 L 58.8192 215.286 L 58.3147 214.444 L 57.7301 213.656 L 57.0711 212.929 L 56.3439 212.27 L 55.5557 211.685 L 54.714 211.181 L 53.8268 210.761 L 52.9028 210.431 L 51.9509 210.192 L 50.9802 210.048 L 50 210 L 49.0198 210.048 L 48.0491 210.192 L 47.0971 210.431 L 46.1732 210.761 L 45.286 211.181 L 44.4443 211.685 L 43.6561 212.27 L 42.9289 212.929 L 42.2699 213.656 L 41.6853 214.444 L 41.1808 215.286 L 40.7612 216.173 L 40.4306 217.097 L 40.1921 218.049 L 40.0482 219.02 M 60 240 l 0 -30 M 70 240 l 0 -30 M 90 220 L 89.9519 219.02 L 89.8079 218.049 L 89.5694 217.097 L 89.2388 216.173 L 88.8192 215.286 L 88.3147 214.444 L 87.7301 213.656 L 87.0711 212.929 L 86.3439 212.27 L 85.5557 211.685 L 84.714 211.181 L 83.8268 210.761 L 82.9028 210.431 L 81.9509 210.192 L 80.9802 210.048 L 80 210 L 79.0198 210.048 L 78.0491 210.192 L 77.0972 210.431 L 76.1732 210.761 L 75.286 211.181 L 74.4443 211.685 L 73.6561 212.27 L 72.9289 212.929 L 72.2699 213.656 L 71.6853 214.444 L 71.1808 215.286 L 70.7612 216.173 L 70.4306 217.097 L 70.1921 218.049 L 70.0481 219.02 M 100 230 L 100.048 230.98 L 100.192 231.951 L 100.431 232.903 L 100.761 233.827 L 101.181 234.714 L 101.685 235.556 L 102.27 236.344 L 102.929 237.071 L 103.656 237.73 L 104.444 238.315 L 105.286 238.819 L 106.173 239.239 L 107.097 239.569 L 108.049 239.808 L 109.02 239.952 L 110 240 L 110.98 239.952 L 111.951 239.808 L 112.903 239.569 L 113.827 239.239 L 114.714 238.819 L 115.556 238.315 L 116.344 237.73 L 117.071 237.071 L 117.73 236.344 L 118.315 235.556 L 118.819 234.714 L 119.239 233.827 L 119.569 232.903 L 119.808 231.951 L 119.952 230.98 M 120 220 L 119.952 219.02 L 119.808 218.049 L 119.569 217.097 L 119.239 216.173 L 118.819 215.286 L 118.315 214.444 L 117.73 213.656 L 117.071 212.929 L 116.344 212.27 L 115.556 211.685 L 114.714 211.181 L 113.827 210.761 L 112.903 210.431 L 111.951 210.192 L 110.98 210.048 L 110 210 L 109.02 210.048 L 108.049 210.192 L 107.097 210.431 L 106.173 210.761 L 105.286 211.181 L 104.444 211.685 L 103.656 212.27 L 102.929 212.929 L 102.27 213.656 L 101.685 214.444 L 101.181 215.286 L 100.761 216.173 L 100.431 217.097 L 100.192 218.049 L 100.048 219.02 M 120 230 l -20 -10 M 130 210 l 20 0 M 140 230 l 0 -40 M 140 230 L 140.048 230.98 L 140.192 231.951 L 140.431 232.903 L 140.761 233.827 L 141.181 234.714 L 141.685 235.556 L 142.27 236.344 L 142.929 237.071 L 143.656 237.73 L 144.444 238.315 L 145.286 238.819 L 146.173 239.239 L 147.097 239.569 L 148.049 239.808 L 149.02 239.952 M 160 230 l 0 -20 M 160 230 L 160.048 230.98 L 160.192 231.951 L 160.431 232.903 L 160.761 233.827 L 161.181 234.714 L 161.685 235.556 L 162.27 236.344 L 162.929 237.071 L 163.656 237.73 L 164.444 238.315 L 165.286 238.819 L 166.173 239.239 L 167.097 239.569 L 168.049 239.808 L 169.02 239.952 L 170 240 L 170.98 239.952 L 171.951 239.808 L 172.903 239.569 L 173.827 239.239 L 174.714 238.819 L 175.556 238.315 L 176.344 237.73 L 177.071 237.071 L 177.73 236.344 L 178.315 235.556 L 178.819 234.714 L 179.239 233.827 L 179.569 232.903 L 179.808 231.951 L 179.952 230.98 M 180 240 l 0 -30 M 200 240 l 10 -30 M 200 240 l -10 -30 M 230 240 l 10 -20 M 230 240 l -10 -30 M 250 240 l 10 -30 M 250 240 l -10 -20 M 270 240 l 20 -30 M 290 240 l -20 -30 M 300 240 l 10 0 M 300 220 l 0 -10 M 310 240 L 310.98 239.952 L 311.951 239.808 L 312.903 239.569 L 313.827 239.239 L 314.714 238.819 L 315.556 238.315 L 316.344 237.73 L 317.071 237.071 L 317.73 236.344 L 318.315 235.556 L 318.819 234.714 L 319.239 233.827 L 319.569 232.903 L 319.808 231.951 L 319.952 230.98 M 300 220 L 300.048 220.98 L 300.192 221.951 L 300.431 222.903 L 300.761 223.827 L 301.181 224.714 L 301.685 225.556 L 302.27 226.344 L 302.929 227.071 L 303.656 227.73 L 304.444 228.315 L 305.286 228.819 L 306.173 229.239 L 307.097 229.569 L 308.049 229.808 L 309.02 229.952 L 310 230 L 310.98 229.952 L 311.951 229.808 L 312.903 229.569 L 313.827 229.239 L 314.714 228.819 L 315.556 228.315 L 316.344 227.73 L 317.071 227.071 L 317.73 226.344 L 318.315 225.556 L 318.819 224.714 L 319.239 223.827 L 319.569 222.903 L 319.808 221.951 L 319.952 220.98 M 320 230 l 0 -20 M 330 240 l 20 0 M 330 240 l 20 -30 M 330 210 l 20 0 " />
</svg>
