<svg xmlns="http://www.w3.org/2000/svg" width="522" height="253">
  <rect width="253" height="253" style="fill: #7b7c41;" />
  <rect x="1" y="1" width="17" height="17" />
  <rect x="19" y="1" width="17" height="17" />
  <rect x="37" y="1" width="17" height="17" />
  <rect x="55" y="1" width="17" height="17" />
  <rect x="73" y="1" width="17" height="17" />
  <rect x="91" y="1" width="17" height="17" />
  <rect x="109" y="1" width="17" height="17" />
  <rect x="127" y="1" width="17" height="17" />
  <rect x="145" y="1" width="17" height="17" />
  <rect x="163" y="1" width="17" height="17" />
  <rect x="181" y="1" width="17" height="17" />
  <rect x="199" y="1" width="17" height="17" />
  <rect x="217" y="1" width="17" height="17" />
  <rect x="235" y="1" width="17" height="17" />
  <rect x="1" y="19" width="17" height="17" />
  <rect x="19" y="19" width="17" height="17" />
  <rect x="37" y="19" width="17" height="17" />
  <rect x="55" y="19" width="17" height="17" />
  <rect x="73" y="19" width="17" height="17" />
  <rect x="91" y="19" width="17" height="17" />
  <rect x="109" y="19" width="17" height="17" />
  <rect x="127" y="19" width="17" height="17" />
  <rect x="145" y="19" width="17" height="17" />
  <rect x="163" y="19" width="17" height="17" />
  <rect x="181" y="19" width="17" height="17" />
  <rect x="199" y="19" width="17" height="17" />
  <rect x="217" y="19" width="17" height="17" />
  <rect x="235" y="19" width="17" height="17" />
  <rect x="1" y="37" width="17" height="17" />
  <rect x="19" y="37" width="17" height="17" />
  <rect x="37" y="37" width="17" height="17" />
  <rect x="55" y="37" width="17" height="17" />
  <rect x="73" y="37" width="17" height="17" />
  <rect x="91" y="37" width="17" height="17" />
  <rect x="109" y="37" width="17" height="17" />
  <rect x="127" y="37" width="17" height="17" />
  <rect x="145" y="37" width="17" height="17" />
  <rect x="163" y="37" width="17" height="17" />
  <rect x="181" y="37" width="17" height="17" />
  <rect x="199" y="37" width="17" height="17" />
  <rect x="217" y="37" width="17" height="17" />
  <rect x="235" y="37" width="17" height="17" />
  <rect x="1" y="55" width="17" height="17" />
  <rect x="19" y="55" width="17" height="17" />
  <rect x="37" y="55" width="17" height="17" />
  <rect x="55" y="55" width="17" height="17" />
  <rect x="73" y="55" width="17" height="17" />
  <rect x="91" y="55" width="17" height="17" />
  <rect x="109" y="55" width="17" height="17" />
  <rect x="127" y="55" width="17" height="17" />
  <rect x="145" y="55" width="17" height="17" />
  <rect x="163" y="55" width="17" height="17" />
  <rect x="181" y="55" width="17" height="17" />
  <rect x="199" y="55" width="17" height="17" />
  <rect x="217" y="55" width="17" height="17" />
  <rect x="235" y="55" width="17" height="17" />
  <rect x="1" y="73" width="17" height="17" />
  <rect x="19" y="73" width="17" height="17" />
  <rect x="37" y="73" width="17" height="17" />
  <rect x="55" y="73" width="17" height="17" />
  <rect x="73" y="73" width="17" height="17" />
  <rect x="91" y="73" width="17" height="17" />
  <rect x="109" y="73" width="17" height="17" />
  <rect x="127" y="73" width="17" height="17" />
  <rect x="145" y="73" width="17" height="17" />
  <rect x="163" y="73" width="17" height="17" />
  <rect x="181" y="73" width="17" height="17" />
  <rect x="199" y="73" width="17" height="17" />
  <rect x="217" y="73" width="17" height="17" />
  <rect x="235" y="73" width="17" height="17" />
  <rect x="1" y="91" width="17" height="17" />
  <rect x="19" y="91" width="17" height="17" />
  <rect x="37" y="91" width="17" height="17" />
  <rect x="55" y="91" width="17" height="17" />
  <rect x="73" y="91" width="17" height="17" />
  <rect x="91" y="91" width="17" height="17" />
  <rect x="109" y="91" width="17" height="17" />
  <rect x="127" y="91" width="17" height="17" />
  <rect x="145" y="91" width="17" height="17" />
  <rect x="163" y="91" width="17" height="17" />
  <rect x="181" y="91" width="17" height="17" />
  <rect x="199" y="91" width="17" height="17" />
  <rect x="217" y="91" width="17" height="17" />
  <rect x="235" y="91" width="17" height="17" />
  <rect x="1" y="109" width="17" height="17" />
  <rect x="19" y="109" width="17" height="17" />
  <rect x="37" y="109" width="17" height="17" />
  <rect x="55" y="109" width="17" height="17" />
  <rect x="73" y="109" width="17" height="17" />
  <rect x="91" y="109" width="17" height="17" />
  <rect x="109" y="109" width="17" height="17" />
  <rect x="127" y="109" width="17" height="17" />
  <rect x="145" y="109" width="17" height="17" />
  <rect x="163" y="109" width="17" height="17" />
  <rect x="181" y="109" width="17" height="17" />
  <rect x="199" y="109" width="17" height="17" />
  <rect x="217" y="109" width="17" height="17" />
  <rect x="235" y="109" width="17" height="17" />
  <rect x="1" y="127" width="17" height="17" />
  <rect x="19" y="127" width="17" height="17" />
  <rect x="37" y="127" width="17" height="17" />
  <rect x="55" y="127" width="17" height="17" />
  <rect x="73" y="127" width="17" height="17" />
  <rect x="91" y="127" width="17" height="17" />
  <rect x="109" y="127" width="17" height="17" />
  <rect x="127" y="127" width="17" height="17" />
  <rect x="145" y="127" width="17" height="17" />
  <rect x="163" y="127" width="17" height="17" />
  <rect x="181" y="127" width="17" height="17" />
  <rect x="199" y="127" width="17" height="17" />
  <rect x="217" y="127" width="17" height="17" />
  <rect x="235" y="127" width="17" height="17" />
  <rect x="1" y="145" width="17" height="17" />
  <rect x="19" y="145" width="17" height="17" />
  <rect x="37" y="145" width="17" height="17" />
  <rect x="55" y="145" width="17" height="17" />
  <rect x="73" y="145" width="17" height="17" />
  <rect x="91" y="145" width="17" height="17" />
  <rect x="109" y="145" width="17" height="17" />
  <rect x="127" y="145" width="17" height="17" />
  <rect x="145" y="145" width="17" height="17" />
  <rect x="163" y="145" width="17" height="17" />
  <rect x="181" y="145" width="17" height="17" />
  <rect x="199" y="145" width="17" height="17" />
  <rect x="217" y="145" width="17" height="17" />
  <rect x="235" y="145" width="17" height="17" />
  <rect x="1" y="163" width="17" height="17" />
  <rect x="19" y="163" width="17" height="17" />
  <rect x="37" y="163" width="17" height="17" />
  <rect x="55" y="163" width="17" height="17" />
  <rect x="73" y="163" width="17" height="17" />
  <rect x="91" y="163" width="17" height="17" />
  <rect x="109" y="163" width="17" height="17" />
  <rect x="127" y="163" width="17" height="17" />
  <rect x="145" y="163" width="17" height="17" />
  <rect x="163" y="163" width="17" height="17" />
  <rect x="181" y="163" width="17" height="17" />
  <rect x="199" y="163" width="17" height="17" />
  <rect x="217" y="163" width="17" height="17" />
  <rect x="235" y="163" width="17" height="17" />
  <rect x="1" y="181" width="17" height="17" />
  <rect x="19" y="181" width="17" height="17" />
  <rect x="37" y="181" width="17" height="17" />
  <rect x="55" y="181" width="17" height="17" />
  <rect x="73" y="181" width="17" height="17" />
  <rect x="91" y="181" width="17" height="17" />
  <rect x="109" y="181" width="17" height="17" />
  <rect x="127" y="181" width="17" height="17" />
  <rect x="145" y="181" width="17" height="17" />
  <rect x="163" y="181" width="17" height="17" />
  <rect x="181" y="181" width="17" height="17" />
  <rect x="199" y="181" width="17" height="17" />
  <rect x="217" y="181" width="17" height="17" />
  <rect x="235" y="181" width="17" height="17" />
  <rect x="1" y="199" width="17" height="17" />
  <rect x="19" y="199" width="17" height="17" />
  <rect x="37" y="199" width="17" height="17" />
  <rect x="55" y="199" width="17" height="17" />
  <rect x="73" y="199" width="17" height="17" />
  <rect x="91" y="199" width="17" height="17" />
  <rect x="109" y="199" width="17" height="17" />
  <rect x="127" y="199" width="17" height="17" />
  <rect x="145" y="199" width="17" height="17" />
  <rect x="163" y="199" width="17" height="17" />
  <rect x="181" y="199" width="17" height="17" />
  <rect x="199" y="199" width="17" height="17" />
  <rect x="217" y="199" width="17" height="17" />
  <rect x="235" y="199" width="17" height="17" />
  <rect x="1" y="217" width="17" height="17" />
  <rect x="19" y="217" width="17" height="17" />
  <rect x="37" y="217" width="17" height="17" />
  <rect x="55" y="217" width="17" height="17" />
  <rect x="73" y="217" width="17" height="17" />
  <rect x="91" y="217" width="17" height="17" />
  <rect x="109" y="217" width="17" height="17" />
  <rect x="127" y="217" width="17" height="17" />
  <rect x="145" y="217" width="17" height="17" />
  <rect x="163" y="217" width="17" height="17" />
  <rect x="181" y="217" width="17" height="17" />
  <rect x="199" y="217" width="17" height="17" />
  <rect x="217" y="217" width="17" height="17" />
  <rect x="235" y="217" width="17" height="17" />
  <rect x="1" y="235" width="17" height="17" />
  <rect x="19" y="235" width="17" height="17" />
  <rect x="37" y="235" width="17" height="17" />
  <rect x="55" y="235" width="17" height="17" />
  <rect x="73" y="235" width="17" height="17" />
  <rect x="91" y="235" width="17" height="17" />
  <rect x="109" y="235" width="17" height="17" />
  <rect x="127" y="235" width="17" height="17" />
  <rect x="145" y="235" width="17" height="17" />
  <rect x="163" y="235" width="17" height="17" />
  <rect x="181" y="235" width="17" height="17" />
  <rect x="199" y="235" width="17" height="17" />
  <rect x="217" y="235" width="17" height="17" />
  <rect x="235" y="235" width="17" height="17" />


  <circle cx="135.5" cy="117.5" r="5.95" style="fill: #ff0000;" />
  <circle cx="9.5" cy="135.5" r="5.95" style="fill: #eeee00;" />
  <circle cx="135.5" cy="135.5" r="5.95" style="fill: #00ff00;" />
  <circle cx="207.5" cy="135.5" r="5.95" style="fill: #ffffff;" />
  <circle cx="27.5" cy="27.5" r="5.95" style="fill: #00008b;" />
  <circle cx="99.5" cy="27.5" r="5.95" style="fill: #00008b;" />
  <circle cx="207.5" cy="45.5" r="5.95" style="fill: #008180;" />
  <circle cx="153.5" cy="63.5" r="5.95" style="fill: #bdb76b;" />
  <circle cx="27.5" cy="81.5" r="5.95" style="fill: #800080;" />
  <circle cx="189.5" cy="81.5" r="5.95" style="fill: #eeee00;" />
  <circle cx="63.5" cy="99.5" r="5.95" style="fill: #ff0000;" />
  <circle cx="81.5" cy="99.5" r="5.95" style="fill: #008180;" />
  <circle cx="117.5" cy="99.5" r="5.95" style="fill: #00ff00;" />
  <circle cx="45.5" cy="117.5" r="5.95" style="fill: #00ffff;" />
  <circle cx="81.5" cy="117.5" r="5.95" style="fill: #00ffff;" />
  <circle cx="45.5" cy="189.5" r="5.95" style="fill: #ff00ff;" />
  <circle cx="63.5" cy="189.5" r="5.95" style="fill: #ff8000;" />
  <circle cx="243.5" cy="189.5" r="5.95" style="fill: #a52a2a;" />
  <circle cx="81.5" cy="207.5" r="5.95" style="fill: #ff00ff;" />
  <circle cx="189.5" cy="207.5" r="5.95" style="fill: #0000ff;" />
  <circle cx="225.5" cy="225.5" r="5.95" style="fill: #800080;" />
  <circle cx="135.5" cy="243.5" r="5.95" style="fill: #a6a6a6;" />
  <circle cx="171.5" cy="243.5" r="5.95" style="fill: #bdb76b;" />
  <circle cx="189.5" cy="243.5" r="5.95" style="fill: #a52a2a;" />
  <circle cx="81.5" cy="153.5" r="5.95" style="fill: #ffffff;" />
  <circle cx="135.5" cy="153.5" r="5.95" style="fill: #ff8000;" />
  <circle cx="171.5" cy="153.5" r="5.95" style="fill: #0000ff;" />
  <circle cx="81.5" cy="171.5" r="5.95" style="fill: #008100;" />
  <circle cx="135.5" cy="171.5" r="5.95" style="fill: #008100;" />
  <circle cx="171.5" cy="171.5" r="5.95" style="fill: #a6a6a6;" />

  <g transform="translate(269,0)" >
<rect fill="#7B7C41" width="253" height="253"/>
<rect x="1" y="1" fill="#6E6E39" width="17" height="17"/>
<rect x="19" y="1" fill="#6E6E39" width="17" height="17"/>
<rect x="37" y="1" fill="#6E6E39" width="17" height="17"/>
<rect x="55" y="1" fill="#6E6E39" width="17" height="17"/>
<rect x="73" y="1" fill="#6E6E39" width="17" height="17"/>
<rect x="91" y="1" fill="#6E6E39" width="17" height="17"/>
<rect x="109" y="1" fill="#6E6E39" width="17" height="17"/>
<rect x="127" y="1" fill="#6E6E39" width="17" height="17"/>
<rect x="145" y="1" fill="#6E6E39" width="17" height="17"/>
<rect x="163" y="1" fill="#6E6E39" width="17" height="17"/>
<rect x="181" y="1" fill="#6E6E39" width="17" height="17"/>
<rect x="199" y="1" fill="#6E6E39" width="17" height="17"/>
<rect x="217" y="1" fill="#6E6E39" width="17" height="17"/>
<rect x="235" y="1" fill="#6E6E39" width="17" height="17"/>
<rect x="1" y="19" fill="#6E6E39" width="17" height="17"/>
<rect x="19" y="19" fill="#393958" width="17" height="17"/>
<circle fill="#00008B" cx="27.5" cy="27.5" r="5.95"/>
<rect x="37" y="19" fill="#393958" width="17" height="17"/>
<rect x="55" y="19" fill="#393958" width="17" height="17"/>
<rect x="73" y="19" fill="#393958" width="17" height="17"/>
<rect x="91" y="19" fill="#393958" width="17" height="17"/>
<circle fill="#00008B" cx="99.5" cy="27.5" r="5.95"/>
<rect x="109" y="19" fill="#553955" width="17" height="17"/>
<rect x="127" y="19" fill="#553955" width="17" height="17"/>
<rect x="145" y="19" fill="#553955" width="17" height="17"/>
<rect x="163" y="19" fill="#553955" width="17" height="17"/>
<rect x="181" y="19" fill="#553955" width="17" height="17"/>
<rect x="199" y="19" fill="#553955" width="17" height="17"/>
<rect x="217" y="19" fill="#553955" width="17" height="17"/>
<rect x="235" y="19" fill="#6E6E39" width="17" height="17"/>
<rect x="1" y="37" fill="#6E6E39" width="17" height="17"/>
<rect x="19" y="37" fill="#553955" width="17" height="17"/>
<rect x="37" y="37" fill="#553955" width="17" height="17"/>
<rect x="55" y="37" fill="#553955" width="17" height="17"/>
<rect x="73" y="37" fill="#553955" width="17" height="17"/>
<rect x="91" y="37" fill="#553955" width="17" height="17"/>
<rect x="109" y="37" fill="#553955" width="17" height="17"/>
<rect x="127" y="37" fill="#395555" width="17" height="17"/>
<rect x="145" y="37" fill="#395555" width="17" height="17"/>
<rect x="163" y="37" fill="#395555" width="17" height="17"/>
<rect x="181" y="37" fill="#395555" width="17" height="17"/>
<rect x="199" y="37" fill="#395555" width="17" height="17"/>
<circle fill="#008180" cx="207.5" cy="45.5" r="5.95"/>
<rect x="217" y="37" fill="#553955" width="17" height="17"/>
<rect x="235" y="37" fill="#6E6E39" width="17" height="17"/>
<rect x="1" y="55" fill="#6E6E39" width="17" height="17"/>
<rect x="19" y="55" fill="#553955" width="17" height="17"/>
<rect x="37" y="55" fill="#6E6E39" width="17" height="17"/>
<rect x="55" y="55" fill="#6E6E39" width="17" height="17"/>
<rect x="73" y="55" fill="#395555" width="17" height="17"/>
<rect x="91" y="55" fill="#395555" width="17" height="17"/>
<rect x="109" y="55" fill="#395555" width="17" height="17"/>
<rect x="127" y="55" fill="#395555" width="17" height="17"/>
<rect x="145" y="55" fill="#646251" width="17" height="17"/>
<circle fill="#BDB76B" cx="153.5" cy="63.5" r="5.95"/>
<rect x="163" y="55" fill="#553955" width="17" height="17"/>
<rect x="181" y="55" fill="#553955" width="17" height="17"/>
<rect x="199" y="55" fill="#553955" width="17" height="17"/>
<rect x="217" y="55" fill="#553955" width="17" height="17"/>
<rect x="235" y="55" fill="#6E6E39" width="17" height="17"/>
<rect x="1" y="73" fill="#6E6E39" width="17" height="17"/>
<rect x="19" y="73" fill="#553955" width="17" height="17"/>
<circle fill="#800080" cx="27.5" cy="81.5" r="5.95"/>
<rect x="37" y="73" fill="#6E6E39" width="17" height="17"/>
<rect x="55" y="73" fill="#6E6E39" width="17" height="17"/>
<rect x="73" y="73" fill="#395555" width="17" height="17"/>
<rect x="91" y="73" fill="#723939" width="17" height="17"/>
<rect x="109" y="73" fill="#723939" width="17" height="17"/>
<rect x="127" y="73" fill="#723939" width="17" height="17"/>
<rect x="145" y="73" fill="#646251" width="17" height="17"/>
<rect x="163" y="73" fill="#553955" width="17" height="17"/>
<rect x="181" y="73" fill="#6E6E39" width="17" height="17"/>
<circle fill="#EEEE00" cx="189.5" cy="81.5" r="5.95"/>
<rect x="199" y="73" fill="#6E6E39" width="17" height="17"/>
<rect x="217" y="73" fill="#6E6E39" width="17" height="17"/>
<rect x="235" y="73" fill="#6E6E39" width="17" height="17"/>
<rect x="1" y="91" fill="#6E6E39" width="17" height="17"/>
<rect x="19" y="91" fill="#723939" width="17" height="17"/>
<rect x="37" y="91" fill="#723939" width="17" height="17"/>
<rect x="55" y="91" fill="#723939" width="17" height="17"/>
<circle fill="#FF0000" cx="63.5" cy="99.5" r="5.95"/>
<rect x="73" y="91" fill="#395555" width="17" height="17"/>
<circle fill="#008180" cx="81.5" cy="99.5" r="5.95"/>
<rect x="91" y="91" fill="#723939" width="17" height="17"/>
<rect x="109" y="91" fill="#397239" width="17" height="17"/>
<circle fill="#00FF00" cx="117.5" cy="99.5" r="5.95"/>
<rect x="127" y="91" fill="#723939" width="17" height="17"/>
<rect x="145" y="91" fill="#646251" width="17" height="17"/>
<rect x="163" y="91" fill="#553955" width="17" height="17"/>
<rect x="181" y="91" fill="#553955" width="17" height="17"/>
<rect x="199" y="91" fill="#553955" width="17" height="17"/>
<rect x="217" y="91" fill="#553955" width="17" height="17"/>
<rect x="235" y="91" fill="#553955" width="17" height="17"/>
<rect x="1" y="109" fill="#6E6E39" width="17" height="17"/>
<rect x="19" y="109" fill="#723939" width="17" height="17"/>
<rect x="37" y="109" fill="#397272" width="17" height="17"/>
<circle fill="#00FFFF" cx="45.5" cy="117.5" r="5.95"/>
<rect x="55" y="109" fill="#397272" width="17" height="17"/>
<rect x="73" y="109" fill="#397272" width="17" height="17"/>
<circle fill="#00FFFF" cx="81.5" cy="117.5" r="5.95"/>
<rect x="91" y="109" fill="#723939" width="17" height="17"/>
<rect x="109" y="109" fill="#397239" width="17" height="17"/>
<rect x="127" y="109" fill="#723939" width="17" height="17"/>
<circle fill="#FF0000" cx="135.5" cy="117.5" r="5.95"/>
<rect x="145" y="109" fill="#646251" width="17" height="17"/>
<rect x="163" y="109" fill="#646251" width="17" height="17"/>
<rect x="181" y="109" fill="#646251" width="17" height="17"/>
<rect x="199" y="109" fill="#646251" width="17" height="17"/>
<rect x="217" y="109" fill="#646251" width="17" height="17"/>
<rect x="235" y="109" fill="#553955" width="17" height="17"/>
<rect x="1" y="127" fill="#6E6E39" width="17" height="17"/>
<circle fill="#EEEE00" cx="9.5" cy="135.5" r="5.95"/>
<rect x="19" y="127" fill="#723939" width="17" height="17"/>
<rect x="37" y="127" fill="#723939" width="17" height="17"/>
<rect x="55" y="127" fill="#723939" width="17" height="17"/>
<rect x="73" y="127" fill="#723939" width="17" height="17"/>
<rect x="91" y="127" fill="#723939" width="17" height="17"/>
<rect x="109" y="127" fill="#397239" width="17" height="17"/>
<rect x="127" y="127" fill="#397239" width="17" height="17"/>
<circle fill="#00FF00" cx="135.5" cy="135.5" r="5.95"/>
<rect x="145" y="127" fill="#727272" width="17" height="17"/>
<rect x="163" y="127" fill="#727272" width="17" height="17"/>
<rect x="181" y="127" fill="#727272" width="17" height="17"/>
<rect x="199" y="127" fill="#727272" width="17" height="17"/>
<circle fill="#FFFFFF" cx="207.5" cy="135.5" r="5.95"/>
<rect x="217" y="127" fill="#646251" width="17" height="17"/>
<rect x="235" y="127" fill="#553955" width="17" height="17"/>
<rect x="1" y="145" fill="#727272" width="17" height="17"/>
<rect x="19" y="145" fill="#727272" width="17" height="17"/>
<rect x="37" y="145" fill="#727272" width="17" height="17"/>
<rect x="55" y="145" fill="#727272" width="17" height="17"/>
<rect x="73" y="145" fill="#727272" width="17" height="17"/>
<circle fill="#FFFFFF" cx="81.5" cy="153.5" r="5.95"/>
<rect x="91" y="145" fill="#725539" width="17" height="17"/>
<rect x="109" y="145" fill="#725539" width="17" height="17"/>
<rect x="127" y="145" fill="#725539" width="17" height="17"/>
<circle fill="#FF8000" cx="135.5" cy="153.5" r="5.95"/>
<rect x="145" y="145" fill="#727272" width="17" height="17"/>
<rect x="163" y="145" fill="#393972" width="17" height="17"/>
<circle fill="#0000FF" cx="171.5" cy="153.5" r="5.95"/>
<rect x="181" y="145" fill="#393972" width="17" height="17"/>
<rect x="199" y="145" fill="#646251" width="17" height="17"/>
<rect x="217" y="145" fill="#646251" width="17" height="17"/>
<rect x="235" y="145" fill="#553955" width="17" height="17"/>
<rect x="1" y="163" fill="#727272" width="17" height="17"/>
<rect x="19" y="163" fill="#395539" width="17" height="17"/>
<rect x="37" y="163" fill="#395539" width="17" height="17"/>
<rect x="55" y="163" fill="#395539" width="17" height="17"/>
<rect x="73" y="163" fill="#395539" width="17" height="17"/>
<circle fill="#008100" cx="81.5" cy="171.5" r="5.95"/>
<rect x="91" y="163" fill="#725539" width="17" height="17"/>
<rect x="109" y="163" fill="#395539" width="17" height="17"/>
<rect x="127" y="163" fill="#395539" width="17" height="17"/>
<circle fill="#008100" cx="135.5" cy="171.5" r="5.95"/>
<rect x="145" y="163" fill="#727272" width="17" height="17"/>
<rect x="163" y="163" fill="#5F5E5F" width="17" height="17"/>
<circle fill="#A6A6A6" cx="171.5" cy="171.5" r="5.95"/>
<rect x="181" y="163" fill="#393972" width="17" height="17"/>
<rect x="199" y="163" fill="#646251" width="17" height="17"/>
<rect x="217" y="163" fill="#553955" width="17" height="17"/>
<rect x="235" y="163" fill="#553955" width="17" height="17"/>
<rect x="1" y="181" fill="#727272" width="17" height="17"/>
<rect x="19" y="181" fill="#395539" width="17" height="17"/>
<rect x="37" y="181" fill="#723972" width="17" height="17"/>
<circle fill="#FF00FF" cx="45.5" cy="189.5" r="5.95"/>
<rect x="55" y="181" fill="#725539" width="17" height="17"/>
<circle fill="#FF8000" cx="63.5" cy="189.5" r="5.95"/>
<rect x="73" y="181" fill="#725539" width="17" height="17"/>
<rect x="91" y="181" fill="#725539" width="17" height="17"/>
<rect x="109" y="181" fill="#395539" width="17" height="17"/>
<rect x="127" y="181" fill="#727272" width="17" height="17"/>
<rect x="145" y="181" fill="#727272" width="17" height="17"/>
<rect x="163" y="181" fill="#5F5E5F" width="17" height="17"/>
<rect x="181" y="181" fill="#393972" width="17" height="17"/>
<rect x="199" y="181" fill="#646251" width="17" height="17"/>
<rect x="217" y="181" fill="#553955" width="17" height="17"/>
<rect x="235" y="181" fill="#5F4242" width="17" height="17"/>
<circle fill="#A52A2A" cx="243.5" cy="189.5" r="5.95"/>
<rect x="1" y="199" fill="#727272" width="17" height="17"/>
<rect x="19" y="199" fill="#395539" width="17" height="17"/>
<rect x="37" y="199" fill="#723972" width="17" height="17"/>
<rect x="55" y="199" fill="#723972" width="17" height="17"/>
<rect x="73" y="199" fill="#723972" width="17" height="17"/>
<circle fill="#FF00FF" cx="81.5" cy="207.5" r="5.95"/>
<rect x="91" y="199" fill="#395539" width="17" height="17"/>
<rect x="109" y="199" fill="#395539" width="17" height="17"/>
<rect x="127" y="199" fill="#727272" width="17" height="17"/>
<rect x="145" y="199" fill="#5F5E5F" width="17" height="17"/>
<rect x="163" y="199" fill="#5F5E5F" width="17" height="17"/>
<rect x="181" y="199" fill="#393972" width="17" height="17"/>
<circle fill="#0000FF" cx="189.5" cy="207.5" r="5.95"/>
<rect x="199" y="199" fill="#646251" width="17" height="17"/>
<rect x="217" y="199" fill="#553955" width="17" height="17"/>
<rect x="235" y="199" fill="#5F4242" width="17" height="17"/>
<rect x="1" y="217" fill="#727272" width="17" height="17"/>
<rect x="19" y="217" fill="#395539" width="17" height="17"/>
<rect x="37" y="217" fill="#395539" width="17" height="17"/>
<rect x="55" y="217" fill="#395539" width="17" height="17"/>
<rect x="73" y="217" fill="#395539" width="17" height="17"/>
<rect x="91" y="217" fill="#395539" width="17" height="17"/>
<rect x="109" y="217" fill="#727272" width="17" height="17"/>
<rect x="127" y="217" fill="#727272" width="17" height="17"/>
<rect x="145" y="217" fill="#5F5E5F" width="17" height="17"/>
<rect x="163" y="217" fill="#646251" width="17" height="17"/>
<rect x="181" y="217" fill="#646251" width="17" height="17"/>
<rect x="199" y="217" fill="#646251" width="17" height="17"/>
<rect x="217" y="217" fill="#553955" width="17" height="17"/>
<circle fill="#800080" cx="225.5" cy="225.5" r="5.95"/>
<rect x="235" y="217" fill="#5F4242" width="17" height="17"/>
<rect x="1" y="235" fill="#727272" width="17" height="17"/>
<rect x="19" y="235" fill="#727272" width="17" height="17"/>
<rect x="37" y="235" fill="#727272" width="17" height="17"/>
<rect x="55" y="235" fill="#727272" width="17" height="17"/>
<rect x="73" y="235" fill="#727272" width="17" height="17"/>
<rect x="91" y="235" fill="#727272" width="17" height="17"/>
<rect x="109" y="235" fill="#727272" width="17" height="17"/>
<rect x="127" y="235" fill="#5F5E5F" width="17" height="17"/>
<circle fill="#A6A6A6" cx="135.5" cy="243.5" r="5.95"/>
<rect x="145" y="235" fill="#5F5E5F" width="17" height="17"/>
<rect x="163" y="235" fill="#646251" width="17" height="17"/>
<circle fill="#BDB76B" cx="171.5" cy="243.5" r="5.95"/>
<rect x="181" y="235" fill="#5F4242" width="17" height="17"/>
<circle fill="#A52A2A" cx="189.5" cy="243.5" r="5.95"/>
<rect x="199" y="235" fill="#5F4242" width="17" height="17"/>
<rect x="217" y="235" fill="#5F4242" width="17" height="17"/>
<rect x="235" y="235" fill="#5F4242" width="17" height="17"/>
<path fill="none" stroke="#00008B" stroke-width="5.95" stroke-linecap="round" d="M99.5,27.5h-18h-18h-18h-18"/>
<path fill="none" stroke="#BDB76B" stroke-width="5.95" stroke-linecap="round" d="M153.5,63.5v18v18v18h18h18h18h18v18v18h-18v18
	v18v18v18h-18h-18v18"/>
<path fill="none" stroke="#800080" stroke-width="5.95" stroke-linecap="round" d="M225.5,225.5v-18v-18v-18h18v-18v-18v-18v-18h-18
	h-18h-18h-18v-18v-18h18h18h18v-18v-18h-18h-18h-18h-18h-18h-18v18h-18h-18h-18h-18h-18v18v18"/>
<path fill="none" stroke="#EEEE00" stroke-width="5.95" stroke-linecap="round" d="M189.5,81.5h18h18h18v-18v-18v-18v-18h-18h-18
	h-18h-18h-18h-18h-18h-18h-18h-18h-18h-18h-18v18v18v18v18v18v18v18"/>
<path fill="none" stroke="#00FF00" stroke-width="5.95" stroke-linecap="round" d="M135.5,135.5h-18v-18v-18"/>
<path fill="none" stroke="#00FFFF" stroke-width="5.95" stroke-linecap="round" d="M81.5,117.5h-18h-18"/>
<path fill="none" stroke="#FFFFFF" stroke-width="5.95" stroke-linecap="round" d="M81.5,153.5h-18h-18h-18h-18v18v18v18v18v18h18
	h18h18h18h18h18v-18h18v-18v-18h18v-18v-18v-18h18h18h18"/>
<path fill="none" stroke="#FF8000" stroke-width="5.95" stroke-linecap="round" d="M135.5,153.5h-18h-18v18v18h-18h-18"/>
<path fill="none" stroke="#0000FF" stroke-width="5.95" stroke-linecap="round" d="M171.5,153.5h18v18v18v18"/>
<path fill="none" stroke="#008100" stroke-width="5.95" stroke-linecap="round" d="M135.5,171.5h-18v18v18h-18v18h-18h-18h-18h-18
	v-18v-18v-18h18h18h18"/>
<path fill="none" stroke="#A6A6A6" stroke-width="5.95" stroke-linecap="round" d="M171.5,171.5v18v18h-18v18v18h-18"/>
<path fill="none" stroke="#FF00FF" stroke-width="5.95" stroke-linecap="round" d="M81.5,207.5h-18h-18v-18"/>
<path fill="none" stroke="#A52A2A" stroke-width="5.95" stroke-linecap="round" d="M189.5,243.5h18h18h18v-18v-18v-18"/>
<rect x="45.5" y="63.5" fill="none" stroke="#EEEE00" stroke-width="5.95" stroke-linecap="round" width="18" height="18"/>
<polyline fill="none" stroke="#FF0000" stroke-width="5.95" stroke-linecap="round" points="63.5,99.5 27.5,99.5 27.5,135.5 
	99.5,135.5 99.5,81.5 135.5,81.5 135.5,117.5 "/>
<polyline fill="none" stroke="#008180" stroke-width="5.95" stroke-linecap="round" points="81.5,99.5 81.5,63.5 135.5,63.5 
	                                                                                  135.5,45.5 207.5,45.5 "/>

</g>
  
</svg>
